<svg width="30" height="30" viewBox="0 0 30 30" fill="none" xmlns="http://www.w3.org/2000/svg">
<path d="M25.6353 14.9426C24.2083 4.73637 22.9693 4.0625 15.0055 4.0625C7.02821 4.0625 5.78796 4.73388 4.36458 14.9293C3.74383 19.3763 4.08383 21.969 5.50208 23.5999C7.20371 25.5554 10.2707 25.9374 14.9942 25.9374C19.7251 25.9374 22.797 25.5541 24.4992 23.5972C25.9161 21.969 26.2561 19.3811 25.6353 14.9426ZM23.0853 22.367C21.8573 23.7795 19.0796 24.0625 14.9951 24.0625C10.918 24.0625 8.14508 23.7793 6.91771 22.3681C5.90521 21.2056 5.69083 18.9905 6.22196 15.188C7.51346 5.938 7.93696 5.938 15.0061 5.938C22.0617 5.938 22.4841 5.938 23.7792 15.2019C24.3091 18.9966 24.0955 21.206 23.0853 22.367Z" fill="black"/>
<path d="M18.125 8.4375C17.8764 8.4375 17.6379 8.53627 17.4621 8.71209C17.2863 8.8879 17.1875 9.12636 17.1875 9.375C17.1875 9.95516 16.957 10.5116 16.5468 10.9218C16.1366 11.332 15.5802 11.5625 15 11.5625C14.4198 11.5625 13.8634 11.332 13.4532 10.9218C13.043 10.5116 12.8125 9.95516 12.8125 9.375C12.8125 9.12636 12.7137 8.8879 12.5379 8.71209C12.3621 8.53627 12.1236 8.4375 11.875 8.4375C11.6264 8.4375 11.3879 8.53627 11.2121 8.71209C11.0363 8.8879 10.9375 9.12636 10.9375 9.375C10.9375 10.4524 11.3655 11.4858 12.1274 12.2476C12.8892 13.0095 13.9226 13.4375 15 13.4375C16.0774 13.4375 17.1108 13.0095 17.8726 12.2476C18.6345 11.4858 19.0625 10.4524 19.0625 9.375C19.0625 9.12636 18.9637 8.8879 18.7879 8.71209C18.6121 8.53627 18.3736 8.4375 18.125 8.4375Z" fill="black"/>
</svg>
