<svg width="139" height="45" viewBox="0 0 139 45" fill="none" xmlns="http://www.w3.org/2000/svg">
<path d="M13.5918 15.544C14.4238 15.544 15.0318 15.6187 15.4158 15.768C15.8211 15.896 16.1091 16.12 16.2798 16.44C16.5144 16.9307 16.6318 17.592 16.6318 18.424V30.808C16.6318 33.048 15.8211 35.032 14.1998 36.76C12.5784 38.4667 10.5091 39.32 7.99175 39.32C6.58375 39.32 5.33575 39.0107 4.24775 38.392C3.26642 37.8587 2.58375 37.3787 2.19975 36.952L1.94375 36.696C1.19708 35.9067 0.82375 35.2347 0.82375 34.68C0.82375 34.104 1.19708 33.432 1.94375 32.664C2.69042 31.896 3.35175 31.512 3.92775 31.512C4.50375 31.512 5.14375 31.864 5.84775 32.568C6.55175 33.272 7.30908 33.624 8.11975 33.624C8.95175 33.624 9.63442 33.3467 10.1678 32.792C10.7011 32.2373 10.9678 31.5013 10.9678 30.584V18.616C10.9678 17.336 11.1811 16.5147 11.6078 16.152C12.0984 15.7467 12.7598 15.544 13.5918 15.544ZM36.1143 16.408C36.3276 16.0667 36.6369 15.832 37.0423 15.704C37.4476 15.576 37.9489 15.512 38.5463 15.512C39.1649 15.512 39.6556 15.5653 40.0183 15.672C40.3809 15.7787 40.6583 15.9067 40.8503 16.056C41.0423 16.2053 41.1809 16.4293 41.2663 16.728C41.3943 17.0907 41.4583 17.6453 41.4583 18.392V28.056C41.4583 30.872 40.5836 33.432 38.8343 35.736C37.9809 36.824 36.8823 37.7093 35.5383 38.392C34.1943 39.0533 32.7009 39.384 31.0583 39.384C29.4369 39.384 27.9543 39.0427 26.6103 38.36C25.2876 37.6773 24.2103 36.7813 23.3783 35.672C21.6503 33.4107 20.7863 30.8507 20.7863 27.992V18.36C20.7863 17.848 20.7969 17.4747 20.8183 17.24C20.8609 16.984 20.9676 16.696 21.1383 16.376C21.3089 16.056 21.5969 15.832 22.0023 15.704C22.4076 15.576 22.9516 15.512 23.6343 15.512C24.3169 15.512 24.8609 15.576 25.2663 15.704C25.6716 15.832 25.9489 16.056 26.0983 16.376C26.3543 16.8667 26.4823 17.5387 26.4823 18.392V27.992C26.4823 29.2933 26.8023 30.5307 27.4423 31.704C27.7623 32.3013 28.2423 32.7813 28.8823 33.144C29.5223 33.5067 30.2796 33.688 31.1543 33.688C32.7116 33.688 33.8743 33.112 34.6423 31.96C35.4103 30.808 35.7943 29.4747 35.7943 27.96V18.168C35.7943 17.336 35.9009 16.7493 36.1143 16.408ZM60.261 32.856L60.837 32.44C61.5623 32.0133 62.0743 31.8 62.373 31.8C63.0343 31.8 63.749 32.3973 64.517 33.592C64.9863 34.3387 65.221 34.936 65.221 35.384C65.221 35.832 65.0717 36.2053 64.773 36.504C64.4957 36.8027 64.165 37.0693 63.781 37.304C63.397 37.5387 63.0237 37.7627 62.661 37.976C62.3197 38.1893 61.605 38.4667 60.517 38.808C59.429 39.1493 58.373 39.32 57.349 39.32C56.3463 39.32 55.3223 39.192 54.277 38.936C53.253 38.6587 52.1863 38.2107 51.077 37.592C49.989 36.952 49.0077 36.184 48.133 35.288C47.2583 34.3707 46.533 33.208 45.957 31.8C45.4023 30.3707 45.125 28.824 45.125 27.16C45.125 25.496 45.4023 23.992 45.957 22.648C46.5117 21.2827 47.2157 20.1627 48.069 19.288C48.9437 18.392 49.9357 17.6453 51.045 17.048C53.1357 15.896 55.237 15.32 57.349 15.32C58.3517 15.32 59.365 15.48 60.389 15.8C61.4343 16.0987 62.2237 16.408 62.757 16.728L63.525 17.176C63.909 17.4107 64.2077 17.6027 64.421 17.752C64.9757 18.2 65.253 18.712 65.253 19.288C65.253 19.8427 65.029 20.4293 64.581 21.048C63.749 22.2 63.0023 22.776 62.341 22.776C61.957 22.776 61.413 22.5413 60.709 22.072C59.813 21.3467 58.6183 20.984 57.125 20.984C55.7383 20.984 54.373 21.464 53.029 22.424C52.389 22.8933 51.8557 23.5547 51.429 24.408C51.0023 25.2613 50.789 26.232 50.789 27.32C50.789 28.3867 51.0023 29.3467 51.429 30.2C51.8557 31.0533 52.3997 31.7253 53.061 32.216C54.3623 33.1547 55.717 33.624 57.125 33.624C57.7863 33.624 58.405 33.5387 58.981 33.368C59.5783 33.1973 60.005 33.0267 60.261 32.856ZM68.9238 18.36C68.9238 17.8693 68.9344 17.5067 68.9558 17.272C68.9984 17.016 69.1051 16.728 69.2758 16.408C69.5744 15.832 70.4064 15.544 71.7718 15.544C73.2651 15.544 74.1504 15.9387 74.4278 16.728C74.5344 17.0907 74.5878 17.6453 74.5878 18.392V36.184C74.5878 36.696 74.5664 37.0693 74.5238 37.304C74.5024 37.5387 74.4064 37.816 74.2358 38.136C73.9371 38.712 73.1051 39 71.7398 39C70.2464 39 69.3718 38.5947 69.1158 37.784C68.9878 37.4427 68.9238 36.8987 68.9238 36.152V18.36ZM84.4065 33.336H94.2625C94.7532 33.336 95.1158 33.3573 95.3505 33.4C95.6065 33.4213 95.8945 33.5173 96.2145 33.688C96.7905 33.9867 97.0785 34.8187 97.0785 36.184C97.0785 37.6773 96.6838 38.552 95.8945 38.808C95.5318 38.936 94.9772 39 94.2305 39H81.5585C80.0652 39 79.1905 38.5947 78.9345 37.784C78.8065 37.4427 78.7425 36.8987 78.7425 36.152V18.36C78.7425 17.272 78.9452 16.536 79.3505 16.152C79.7558 15.7467 80.5238 15.544 81.6545 15.544H94.2625C94.7532 15.544 95.1158 15.5653 95.3505 15.608C95.6065 15.6293 95.8945 15.7253 96.2145 15.896C96.7905 16.1947 97.0785 17.0267 97.0785 18.392C97.0785 19.8853 96.6838 20.76 95.8945 21.016C95.5318 21.144 94.9772 21.208 94.2305 21.208H84.4065V24.44H90.7425C91.2332 24.44 91.5958 24.4613 91.8305 24.504C92.0865 24.5253 92.3745 24.6213 92.6945 24.792C93.2705 25.0907 93.5585 25.9227 93.5585 27.288C93.5585 28.7813 93.1532 29.656 92.3425 29.912C91.9798 30.04 91.4252 30.104 90.6785 30.104H84.4065V33.336ZM118.701 35.032C119.021 35.8 119.181 36.3547 119.181 36.696C119.181 37.5067 118.519 38.1893 117.197 38.744C116.514 39.0427 115.959 39.192 115.533 39.192C115.127 39.192 114.786 39.096 114.509 38.904C114.253 38.6907 114.061 38.4773 113.933 38.264C113.719 37.8587 112.887 35.928 111.437 32.472L110.445 32.536H106.413V36.152C106.413 36.6427 106.391 37.016 106.349 37.272C106.327 37.5067 106.231 37.784 106.061 38.104C105.762 38.68 104.93 38.968 103.565 38.968C102.071 38.968 101.197 38.5733 100.941 37.784C100.813 37.4213 100.749 36.8667 100.749 36.12V18.36C100.749 17.8693 100.759 17.5067 100.781 17.272C100.823 17.016 100.93 16.728 101.101 16.408C101.399 15.832 102.231 15.544 103.597 15.544H110.509C112.386 15.544 114.21 16.2267 115.981 17.592C116.834 18.2533 117.538 19.1493 118.093 20.28C118.647 21.4107 118.925 22.6693 118.925 24.056C118.925 26.4667 118.125 28.4507 116.525 30.008C116.994 31.1387 117.719 32.8133 118.701 35.032ZM106.413 26.872H110.509C111.127 26.872 111.746 26.6373 112.365 26.168C112.983 25.6987 113.293 24.9947 113.293 24.056C113.293 23.1173 112.983 22.4133 112.365 21.944C111.746 21.4533 111.106 21.208 110.445 21.208H106.413V26.872Z" fill="white"/>
<path d="M112.762 1C113.032 1 119.42 1.03933 122.756 4.4572C123.963 5.69337 124.732 7.23526 124.921 8.79901C125.085 10.1547 124.803 11.3981 124.123 12.3749C125.184 13.7157 125.76 15.3742 125.76 17.1237V17.7407C125.877 17.5992 126 17.4617 126.129 17.3292L127.367 16.061C126.824 15.221 126.603 14.1731 126.74 13.0358C126.905 11.6749 127.573 10.334 128.621 9.26007C131.504 6.30716 137.005 6.27319 137.238 6.27319H138V7.0535C138 7.29197 137.967 12.9273 135.084 15.8802C134.036 16.9542 132.727 17.6384 131.398 17.807C131.183 17.8343 130.971 17.8478 130.764 17.8478C129.899 17.8478 129.106 17.6132 128.445 17.1644L127.207 18.4326C126.274 19.3882 125.76 20.6585 125.76 22.0098V25H124.237V22.0098V17.1237C124.237 15.7858 123.812 14.5149 123.028 13.472C122.266 14.0033 121.346 14.2819 120.34 14.2819C120.102 14.2819 119.86 14.2664 119.614 14.2352C118.087 14.0415 116.582 13.2541 115.375 12.0179C112.038 8.60008 112 2.05717 112 1.78031V1H112.762ZM131.211 16.2583C132.204 16.1322 133.197 15.606 134.007 14.7768C135.855 12.8838 136.32 9.44266 136.437 7.87309C134.906 7.99139 131.551 8.46561 129.698 10.3636C128.339 11.7564 127.88 13.6343 128.483 14.9183L132.576 10.7262L133.653 11.8297L129.562 16.0205C130.033 16.2518 130.597 16.3361 131.211 16.2583ZM116.452 10.9144C117.42 11.906 118.61 12.5352 119.801 12.6864C120.616 12.7899 121.36 12.6567 121.965 12.3106L117.225 7.4551L118.302 6.35159L123.042 11.2071C123.38 10.5876 123.51 9.82528 123.409 8.99081C123.261 7.7704 122.647 6.55223 121.679 5.56066C119.425 3.25151 115.292 2.71939 113.559 2.59699C113.679 4.3723 114.198 8.60528 116.452 10.9144Z" fill="white" stroke="#FFF7EF" stroke-width="0.5"/>
</svg>
