<svg width="2920" height="324" viewBox="0 0 2920 324" fill="none" xmlns="http://www.w3.org/2000/svg">
<path d="M25.9822 200.314C23.6883 198.669 22.3162 197.021 21.8658 195.369C21.3975 193.652 22.2052 191.018 24.2891 187.469C25.5082 185.434 27.0426 184.164 28.8922 183.659C30.7418 183.155 33.7683 184.104 37.9719 186.506C39.2029 187.377 40.8213 188.106 42.827 188.695C44.8147 189.217 46.5352 189.281 47.9884 188.884C54.1317 187.209 56.5189 183.861 55.1498 178.841C54.7355 177.322 53.5345 176.301 51.5468 175.778C49.6072 175.172 47.3192 174.979 44.683 175.201C42.0467 175.424 39.1402 175.435 35.9635 175.237C32.7687 174.973 29.7271 174.489 26.8387 173.787C23.9502 173.084 21.242 171.481 18.7139 168.976C16.2338 166.388 14.4173 162.98 13.2645 158.752C11.6793 152.939 12.4481 147.301 15.5709 141.836C18.7418 136.287 24.0594 132.495 31.5239 130.46C35.4873 129.379 39.2315 128.926 42.7566 129.1C46.3296 129.19 48.8878 129.592 50.4311 130.307L53.4216 131.514C55.9918 132.871 57.457 134.211 57.8173 135.532C58.1776 136.853 57.8803 138.886 56.9254 141.63C55.5801 145.545 53.7185 147.827 51.3404 148.476C49.9532 148.854 48.0556 148.662 45.6475 147.899C45.4133 147.821 44.9269 147.599 44.1883 147.232C43.5157 146.848 42.9032 146.554 42.3507 146.35C40.7294 145.869 38.8287 145.926 36.6489 146.521C34.535 147.097 32.8956 148.112 31.7306 149.565C30.6136 150.934 30.3073 152.544 30.8116 154.393C31.298 156.177 32.52 157.405 34.4777 158.077C36.5014 158.732 38.8224 158.915 41.4406 158.627C44.0589 158.339 46.9714 158.219 50.1781 158.267C53.3669 158.249 56.3784 158.492 59.2129 158.997C62.0473 159.501 64.6955 161.015 67.1575 163.537C69.6676 165.975 71.5081 169.341 72.679 173.635C73.8499 177.929 74.0269 181.961 73.2101 185.732C72.3753 189.437 70.8139 192.56 68.5258 195.1C64.1299 200.06 58.8934 203.369 52.8161 205.026C49.7114 205.873 46.6728 206.311 43.7003 206.341C40.7097 206.305 38.2026 205.96 36.1788 205.305C32.1014 204.146 29.0988 202.765 27.1712 201.161L25.9822 200.314Z" fill="#B61138"/>
<path d="M75.5375 151.292C75.1505 149.766 74.8977 148.629 74.7789 147.882C74.7098 147.052 74.7813 146.08 74.9935 144.967C75.4852 143.006 77.8549 141.487 82.1026 140.41C85.2883 139.602 87.6879 139.595 89.3013 140.386C90.6652 141.029 91.6242 142.305 92.1785 144.213C92.4132 144.86 92.6903 145.814 93.01 147.075L101.843 181.919C102.23 183.445 102.459 184.624 102.528 185.454C102.646 186.201 102.566 187.139 102.288 188.269C101.863 190.214 99.526 191.724 95.2784 192.801C91.0971 193.861 88.3147 193.613 86.9312 192.056C86.2143 191.179 85.6969 190.392 85.3791 189.695C85.1276 188.982 84.8 187.829 84.3962 186.236L75.5375 151.292ZM87.1953 128.736C86.9663 129.783 86.2718 130.665 85.1117 131.383C83.9516 132.101 82.3097 132.729 80.1858 133.267C78.1284 133.789 76.4187 134.01 75.0567 133.932C73.6947 133.853 72.622 133.384 71.8387 132.523C71.1217 131.645 70.6043 130.858 70.2865 130.161C70.0182 129.382 69.6906 128.229 69.3036 126.702C68.9166 125.176 68.6638 124.039 68.5451 123.292C68.4759 122.462 68.5558 121.524 68.7849 120.477C69.2597 118.449 71.621 116.897 75.8687 115.82C80.05 114.76 82.7992 115.017 84.1163 116.59C84.8996 117.451 85.4254 118.271 85.6937 119.051C86.0115 119.747 86.3639 120.859 86.7509 122.385C87.1379 123.912 87.366 125.09 87.4351 125.92C87.5538 126.667 87.4739 127.605 87.1953 128.736Z" fill="#B61138"/>
<path d="M115.045 202.894L101.146 144.548C100.781 143.016 100.544 141.875 100.437 141.127C100.395 140.362 100.497 139.459 100.741 138.415C101.245 136.394 103.262 134.964 106.792 134.123C110.322 133.282 112.798 133.185 114.219 133.832C115.69 134.396 116.732 135.52 117.345 137.205C119.051 133.138 122.601 130.462 127.996 129.177C133.458 127.876 139.231 129.211 145.315 133.181C151.399 137.152 155.25 142.534 156.868 149.327C158.487 156.121 157.475 162.661 153.835 168.948C150.261 175.219 145.743 179.005 140.282 180.306C134.82 181.607 130.492 181.02 127.298 178.543L132.105 198.724C132.47 200.256 132.673 201.404 132.715 202.169C132.823 202.917 132.721 203.821 132.411 204.881C132.182 205.991 131.516 206.888 130.413 207.574C129.309 208.259 127.725 208.847 125.66 209.339C123.595 209.831 121.883 210.028 120.522 209.93C119.228 209.816 118.203 209.356 117.448 208.551C116.76 207.729 116.262 206.968 115.954 206.267C115.713 205.55 115.41 204.426 115.045 202.894ZM123.617 151.125C122.513 153.288 122.216 155.435 122.723 157.567C123.231 159.698 124.465 161.481 126.425 162.914C128.436 164.265 130.641 164.655 133.039 164.084C135.503 163.497 137.362 162.139 138.614 160.01C139.933 157.866 140.331 155.695 139.808 153.497C139.284 151.299 138.017 149.525 136.006 148.174C133.979 146.756 131.666 146.357 129.069 146.975C126.538 147.578 124.721 148.962 123.617 151.125Z" fill="#B61138"/>
<path d="M162.37 160.11C162.731 158.906 163.535 157.954 164.781 157.253C166.013 156.486 168.098 155.772 171.038 155.113C173.977 154.453 176.231 154.649 177.801 155.7C179.422 156.67 180.652 159.025 181.491 162.767C181.806 164.17 181.998 165.495 182.068 166.742C182.74 172.556 181.979 177.919 179.783 182.833C177.588 187.746 174.385 190.675 170.177 191.62C169.709 191.725 169.192 191.455 168.626 190.81C168.143 190.216 167.773 189.352 167.518 188.216C167.278 187.147 167.217 186.249 167.335 185.521C167.519 184.778 167.822 184.254 168.245 183.948C168.682 183.71 169.09 183.338 169.468 182.832C169.927 182.378 170.434 181.352 170.988 179.754C171.541 178.156 171.683 176.44 171.412 174.607C169.214 174.819 167.386 174.492 165.929 173.626C164.523 172.679 163.528 170.902 162.944 168.296C162.411 165.609 162.095 163.891 161.997 163.141C161.951 162.309 162.075 161.299 162.37 160.11Z" fill="#B61138"/>
<path d="M212.346 154.761C210.164 152.97 208.902 151.235 208.561 149.558C208.206 147.814 209.184 145.239 211.495 141.833C212.844 139.881 214.458 138.714 216.337 138.332C218.215 137.949 221.173 139.094 225.211 141.765C226.383 142.714 227.95 143.548 229.913 144.266C231.862 144.917 233.575 145.093 235.051 144.792C241.291 143.521 243.891 140.337 242.853 135.238C242.538 133.695 241.407 132.597 239.457 131.946C237.561 131.214 235.291 130.873 232.646 130.923C230.001 130.972 227.1 130.794 223.943 130.389C220.772 129.917 217.768 129.236 214.932 128.346C212.095 127.456 209.498 125.68 207.138 123.016C204.833 120.271 203.243 116.752 202.368 112.458C201.166 106.554 202.301 100.977 205.774 95.7281C209.3 90.3982 214.854 86.9614 222.435 85.4174C226.461 84.5976 230.227 84.3897 233.733 84.7937C237.292 85.117 239.819 85.6855 241.312 86.4994L244.218 87.8991C246.694 89.4213 248.068 90.8532 248.342 92.1951C248.615 93.5369 248.186 95.5459 247.054 98.222C245.456 102.041 243.449 104.197 241.034 104.689C239.625 104.976 237.744 104.66 235.391 103.742C235.162 103.648 234.691 103.395 233.978 102.981C233.332 102.554 232.74 102.22 232.202 101.98C230.615 101.395 228.715 101.328 226.501 101.779C224.354 102.216 222.652 103.121 221.395 104.496C220.191 105.789 219.78 107.375 220.162 109.253C220.531 111.065 221.671 112.37 223.58 113.169C225.557 113.954 227.861 114.289 230.492 114.172C233.124 114.055 236.038 114.126 239.235 114.383C242.418 114.573 245.407 115.013 248.202 115.701C250.998 116.39 253.542 118.073 255.834 120.75C258.179 123.347 259.796 126.826 260.684 131.187C261.572 135.548 261.486 139.583 260.425 143.293C259.35 146.936 257.588 149.95 255.139 152.335C250.429 156.998 244.987 159.958 238.815 161.215C235.661 161.857 232.601 162.096 229.632 161.932C226.651 161.701 224.171 161.192 222.195 160.407C218.202 158.984 215.296 157.41 213.477 155.684L212.346 154.761Z" fill="#B61138"/>
<path d="M283.287 103.58C285.585 98.222 288.958 95.1397 293.404 94.3328C300.276 93.0858 305.928 95.0872 310.36 100.337C310.917 99.192 311.604 97.9889 312.419 96.7276C313.289 95.3867 314.753 93.8684 316.811 92.1728C318.857 90.4097 321.093 89.3081 323.518 88.868C328.908 87.89 333.8 89.1593 338.196 92.676C342.58 96.1254 345.64 102.633 347.376 112.2L350.585 129.884C350.866 131.433 351.013 132.625 351.025 133.457C351.092 134.211 350.947 135.142 350.592 136.25C350.046 138.228 347.618 139.608 343.306 140.39C339.062 141.161 336.297 140.688 335.011 138.973C334.356 138.048 333.894 137.227 333.625 136.511C333.411 135.714 333.163 134.542 332.882 132.992L329.673 115.308C328.609 109.447 325.989 106.895 321.812 107.653C319.454 108.081 317.978 109.149 317.383 110.858C316.856 112.554 316.849 114.817 317.363 117.646L320.572 135.33C320.865 136.947 321.012 138.138 321.012 138.904C321.079 139.657 320.935 140.588 320.579 141.696C319.966 143.686 317.504 145.073 313.192 145.855C308.948 146.625 306.183 146.153 304.897 144.438C304.242 143.513 303.78 142.692 303.511 141.975C303.297 141.179 303.049 140.006 302.768 138.457L299.559 120.772C298.495 114.911 295.875 112.36 291.698 113.118C287.656 113.851 286.167 117.149 287.231 123.01L290.476 140.896C290.758 142.446 290.904 143.637 290.916 144.47C290.983 145.223 290.839 146.154 290.483 147.262C289.791 149.197 287.322 150.55 283.078 151.32C278.834 152.09 276.075 151.651 274.802 150.004C274.147 149.079 273.685 148.258 273.416 147.541C273.214 146.812 272.966 145.64 272.673 144.023L266.218 108.452C265.936 106.902 265.762 105.751 265.695 104.998C265.683 104.165 265.861 103.228 266.229 102.187C266.909 100.185 269.136 98.8411 272.909 98.1565C276.681 97.4719 279.25 97.632 280.616 98.6368C281.981 99.6416 282.871 101.289 283.287 103.58Z" fill="#B61138"/>
<path d="M353.135 93.0971C352.878 91.5435 352.722 90.3895 352.667 89.6353C352.668 88.8023 352.821 87.8401 353.126 86.7486C353.782 84.8358 356.271 83.5219 360.594 82.8068C363.837 82.2705 366.228 82.4649 367.769 83.3898C369.074 84.1455 369.922 85.4973 370.314 87.4452C370.493 88.1095 370.689 89.0834 370.901 90.3669L376.767 125.831C377.024 127.385 377.152 128.578 377.151 129.411C377.206 130.166 377.048 131.094 376.675 132.197C376.087 134.098 373.632 135.407 369.308 136.122C365.053 136.826 362.301 136.344 361.054 134.676C360.413 133.741 359.964 132.913 359.706 132.193C359.515 131.461 359.286 130.284 359.018 128.663L353.135 93.0971ZM366.653 71.6031C366.336 72.627 365.57 73.4478 364.353 74.0654C363.137 74.6829 361.448 75.1705 359.286 75.528C357.192 75.8744 355.47 75.9511 354.119 75.7581C352.769 75.565 351.739 75.0066 351.031 74.0827C350.391 73.1476 349.942 72.3197 349.684 71.599C349.482 70.7996 349.253 69.623 348.996 68.0693C348.739 66.5156 348.583 65.3617 348.527 64.6074C348.528 63.7745 348.687 62.846 349.004 61.8221C349.648 59.8418 352.131 58.4941 356.455 57.779C360.71 57.0751 363.428 57.5625 364.608 59.2411C365.316 60.165 365.771 61.0267 365.972 61.8261C366.23 62.5469 366.488 63.6841 366.745 65.2377C367.002 66.7914 367.13 67.9848 367.129 68.8177C367.184 69.572 367.025 70.5004 366.653 71.6031Z" fill="#B61138"/>
<path d="M374.945 63.6924C374.7 62.1367 374.553 60.9816 374.504 60.2269C374.511 59.394 374.672 58.433 374.986 57.344C375.646 55.3688 378.14 54.0406 382.469 53.3596C386.594 52.7104 389.308 53.2191 390.61 54.8857C391.311 55.8151 391.759 56.6803 391.954 57.4813C392.217 58.2717 392.471 59.4447 392.716 61.0004L400.107 107.974C400.49 110.409 400.937 111.933 401.45 112.546C401.951 113.09 402.878 113.256 404.231 113.044C405.651 112.82 406.609 112.739 407.104 112.8C407.588 112.793 408.205 112.973 408.956 113.34C410.447 114.006 411.501 116.301 412.119 120.224C412.789 124.485 412.522 127.196 411.319 128.355C409.752 129.85 405.59 130.712 398.834 130.943C393.519 131.086 389.866 129.894 387.874 127.365C385.459 124.349 383.682 119.223 382.543 111.985L374.945 63.6924Z" fill="#B61138"/>
<path d="M464.962 87.6933C465.56 91.827 464.956 95.0621 463.149 97.3988C461.4 99.6579 459.272 100.969 456.765 101.331L432.675 104.815C432.949 106.712 434.297 108.143 436.72 109.107C439.142 110.071 441.471 110.392 443.708 110.068C447.638 109.5 450.662 108.648 452.781 107.511L453.84 106.943C455.359 105.962 456.66 105.394 457.745 105.237C459.913 104.923 461.997 106.178 463.997 109.002C465.142 110.705 465.808 112.2 465.994 113.487C466.866 119.518 460.085 123.577 445.651 125.664C440.637 126.389 436.042 126.189 431.867 125.063C427.749 123.86 424.401 121.992 421.821 119.459C416.758 114.588 413.736 108.764 412.757 101.987C411.522 93.4489 413.282 86.2417 418.036 80.3657C422.848 74.4122 429.387 70.8377 437.655 69.6423C447.074 68.2803 454.466 70.6013 459.831 76.6053C462.644 79.7959 464.355 83.4919 464.962 87.6933ZM443.941 93.7423C446.516 93.37 447.647 92.0996 447.333 89.9311C447.108 88.3725 446.317 87.207 444.96 86.4347C443.671 85.6526 441.908 85.4232 439.672 85.7465C437.503 86.0601 435.467 87.2885 433.563 89.4317C431.65 91.5071 430.84 93.5613 431.134 95.5942L443.941 93.7423Z" fill="#B61138"/>
<path d="M474.836 103.955C475.302 102.788 476.188 101.911 477.491 101.323C478.785 100.668 480.926 100.142 483.912 99.7459C486.899 99.3496 489.127 99.7446 490.597 100.931C492.125 102.04 493.142 104.496 493.646 108.297C493.835 109.722 493.909 111.059 493.868 112.308C494.022 118.158 492.788 123.433 490.166 128.132C487.543 132.832 484.094 135.465 479.818 136.033C479.343 136.096 478.852 135.781 478.346 135.088C477.916 134.455 477.625 133.561 477.472 132.407C477.328 131.321 477.346 130.421 477.528 129.706C477.777 128.982 478.126 128.487 478.574 128.22C479.031 128.021 479.47 127.687 479.891 127.217C480.389 126.805 480.985 125.828 481.678 124.286C482.371 122.743 482.664 121.047 482.556 119.196C480.348 119.213 478.557 118.725 477.182 117.734C475.866 116.665 475.033 114.807 474.681 112.16C474.389 109.436 474.227 107.696 474.196 106.941C474.224 106.108 474.437 105.113 474.836 103.955Z" fill="#B61138"/>
<path d="M584.373 94.1508C585.67 96.4853 586.379 98.1969 586.502 99.2855C586.793 101.871 584.929 104.286 580.909 106.53C578.839 107.727 577.124 108.403 575.763 108.556C574.47 108.702 573.347 108.518 572.394 108.005C571.501 107.417 570.812 106.805 570.327 106.171C569.501 104.955 566.154 99.096 560.287 88.5945L557.146 89.1549L544.286 90.6027L545.585 102.135C545.761 103.7 545.827 104.899 545.783 105.73C545.799 106.487 545.592 107.406 545.163 108.487C544.417 110.432 541.867 111.649 537.513 112.139C532.75 112.676 529.819 111.731 528.719 109.305C528.18 108.195 527.777 106.449 527.509 104.067L521.131 47.4245C520.955 45.8596 520.859 44.6991 520.843 43.943C520.887 43.1112 521.124 42.1544 521.553 41.0725C522.299 39.1282 524.849 37.9109 529.203 37.4206L551.248 34.9386C557.236 34.2644 563.298 35.7867 569.436 39.5054C572.395 41.3082 574.962 43.913 577.137 47.3199C579.312 50.7269 580.648 54.6416 581.146 59.0641C582.012 66.7526 580.173 73.3675 575.629 78.9089C577.532 82.3465 580.447 87.4271 584.373 94.1508ZM542.252 72.5383L555.316 71.0675C557.289 70.8453 559.178 69.8747 560.983 68.1557C562.787 66.4367 563.521 64.0803 563.184 61.0866C562.847 58.0928 561.607 55.9586 559.466 54.6839C557.316 53.3411 555.187 52.7885 553.078 53.026L540.218 54.4739L542.252 72.5383Z" fill="#B61138"/>
<path d="M639.339 68.0875C639.734 72.2454 638.972 75.4471 637.053 77.6927C635.196 79.8636 633.006 81.0688 630.484 81.3083L606.252 83.6094C606.434 85.518 607.71 87.013 610.083 88.0945C612.455 89.176 614.766 89.6099 617.015 89.3963C620.969 89.0209 624.031 88.3174 626.203 87.2858L627.289 86.77C628.853 85.8649 630.181 85.3605 631.272 85.257C633.453 85.0498 635.473 86.4055 637.332 89.3239C638.393 91.0801 638.985 92.6058 639.108 93.9009C639.684 99.9674 632.713 103.69 618.194 105.069C613.15 105.548 608.57 105.123 604.455 103.794C600.402 102.391 597.148 100.362 594.695 97.7059C589.877 92.5925 587.144 86.6277 586.496 79.8114C585.681 71.2229 587.791 64.1104 592.827 58.4739C597.924 52.7628 604.631 49.5124 612.946 48.7227C622.421 47.8229 629.691 50.5026 634.756 56.7618C637.41 60.0862 638.938 63.8614 639.339 68.0875ZM618.047 73.1013C620.637 72.8553 621.829 71.6417 621.622 69.4605C621.473 67.8928 620.739 66.69 619.422 65.8523C618.173 65.008 616.423 64.6927 614.174 64.9063C611.993 65.1135 609.899 66.2408 607.892 68.2883C605.879 70.2677 604.97 72.2798 605.164 74.3247L618.047 73.1013Z" fill="#B61138"/>
<path d="M650.788 115.454L646.188 55.6515C646.067 54.0814 646.012 52.9182 646.023 52.162C646.102 51.4006 646.343 50.5236 646.748 49.5311C647.561 47.6144 649.778 46.5168 653.396 46.2385C657.014 45.9602 659.474 46.2517 660.777 47.1129C662.142 47.9007 662.995 49.1741 663.337 50.9333C665.658 47.1839 669.583 45.0965 675.113 44.6712C680.711 44.2406 686.204 46.462 691.591 51.3352C696.979 56.2085 699.941 62.1268 700.477 69.0901C701.012 76.0534 698.99 82.355 694.411 87.9949C689.9 93.6296 684.846 96.6622 679.248 97.0928C673.65 97.5234 669.467 96.2656 666.7 93.3196L668.291 114.005C668.411 115.575 668.432 116.741 668.354 117.502C668.343 118.258 668.102 119.135 667.629 120.133C667.23 121.194 666.432 121.976 665.234 122.48C664.037 122.984 662.38 123.318 660.264 123.481C658.148 123.643 656.425 123.57 655.097 123.26C653.836 122.945 652.896 122.331 652.277 121.417C651.725 120.498 651.352 119.668 651.158 118.928C651.032 118.182 650.909 117.024 650.788 115.454ZM667.354 65.6634C665.925 67.6274 665.295 69.7017 665.463 71.8862C665.631 74.0708 666.571 76.0243 668.283 77.7467C670.058 79.3957 672.174 80.1256 674.632 79.9366C677.158 79.7423 679.206 78.6921 680.776 76.7858C682.414 74.8744 683.147 72.7922 682.974 70.5394C682.801 68.2865 681.826 66.3357 680.051 64.6867C678.271 62.9695 676.05 62.2133 673.388 62.4181C670.793 62.6176 668.782 63.6994 667.354 65.6634Z" fill="#B61138"/>
<path d="M760.587 59.7833C760.829 63.9529 759.949 67.1244 757.949 69.2977C756.013 71.3987 753.781 72.5224 751.251 72.6688L726.951 74.0753C727.062 75.9893 728.283 77.5303 730.614 78.6985C732.945 79.8667 735.238 80.3855 737.494 80.2549C741.458 80.0254 744.545 79.4353 746.753 78.4844L747.857 78.009C749.454 77.1622 750.799 76.7071 751.893 76.6438C754.08 76.5172 756.049 77.9463 757.799 80.9313C758.795 82.7254 759.33 84.2719 759.405 85.5706C759.757 91.6542 752.654 95.1174 738.094 95.9601C733.036 96.2529 728.475 95.6596 724.411 94.1803C720.412 92.6286 717.236 90.4806 714.883 87.7363C710.256 82.4488 707.744 76.3873 707.349 69.5519C706.85 60.9391 709.221 53.9092 714.461 48.4621C719.765 42.9427 726.587 39.9417 734.926 39.459C744.428 38.909 751.594 41.8548 756.425 48.2964C758.954 51.7163 760.342 55.5453 760.587 59.7833ZM739.125 64.009C741.723 63.8586 742.958 62.6898 742.831 60.5024C742.74 58.9303 742.052 57.7013 740.766 56.8156C739.549 55.9259 737.812 55.5463 735.557 55.6769C733.369 55.8035 731.235 56.8529 729.155 58.8251C727.07 60.7289 726.087 62.7061 726.206 64.7568L739.125 64.009Z" fill="#B61138"/>
<path d="M802.607 43.2098C802.872 39.3627 805.502 37.3442 810.496 37.1544C813.165 37.053 815.157 37.1829 816.472 37.544C817.788 37.9051 818.705 38.5898 819.223 39.5979C819.809 40.6034 820.152 41.5153 820.252 42.3338C820.417 43.0812 820.53 44.2417 820.589 45.8154L821.954 81.7358C822.014 83.3095 821.991 84.5094 821.886 85.3356C821.846 86.0909 821.606 86.9907 821.166 88.0352C820.276 89.8505 817.949 90.8297 814.186 90.9727C810.491 91.1131 807.977 90.7632 806.643 89.9232C805.375 89.0121 804.605 87.671 804.332 85.8999C801.938 89.6223 797.765 91.5966 791.813 91.8228C785.928 92.0464 780.352 89.5518 775.084 84.339C769.815 79.1262 767.046 72.962 766.775 65.8464C766.502 58.6623 768.796 52.3057 773.656 46.7765C778.583 41.1764 784.09 38.2606 790.18 38.0292C792.506 37.9408 794.643 38.2707 796.589 39.019C798.536 39.7672 799.901 40.5034 800.682 41.2274C801.46 41.883 802.102 42.5438 802.607 43.2098ZM784.74 65.2665C784.825 67.5244 785.793 69.5432 787.642 71.3229C789.488 73.0342 791.677 73.8418 794.209 73.7456C796.741 73.6494 798.792 72.6465 800.364 70.7367C802.004 68.8244 802.783 66.7735 802.7 64.5841C802.614 62.3262 801.714 60.2706 799.999 58.4172C798.352 56.5613 796.161 55.6853 793.424 55.7893C790.756 55.8907 788.603 56.9318 786.965 58.9125C785.396 60.8907 784.654 63.0087 784.74 65.2665Z" fill="#B61138"/>
<path d="M861.524 54.1499L854.841 53.8673L855.114 68.0378C855.149 69.8862 855.448 71.2158 856.012 72.0268C856.644 72.8364 857.747 73.2261 859.321 73.1959C860.964 73.1643 862.198 73.2091 863.022 73.3302C863.913 73.3816 864.843 73.6719 865.812 74.2012C867.404 75.0609 868.235 77.339 868.306 81.0357C868.389 85.3485 867.481 88.0024 865.583 88.9977C864.565 89.4966 863.647 89.8224 862.828 89.9751C862.076 90.058 860.948 90.1139 859.442 90.1428C852.322 90.2796 846.883 88.7747 843.125 85.6282C839.366 82.4818 837.413 77.075 837.266 69.4078L836.974 54.2105C835.677 54.4408 834.276 54.5704 832.77 54.5994C831.264 54.6283 829.986 54.0707 828.937 52.9267C827.956 51.7813 827.439 49.8053 827.385 46.9986C827.331 44.1918 827.464 42.1691 827.782 40.9303C828.1 39.6231 828.561 38.6897 829.167 38.1302C830.245 37.2192 831.605 36.748 833.248 36.7164L836.645 37.0621L836.442 26.4855C836.411 24.911 836.423 23.7466 836.477 22.9923C836.6 22.2366 836.926 21.4086 837.457 20.5081C838.314 18.7796 840.933 17.8733 845.314 17.7891C849.969 17.6997 852.766 18.9129 853.705 21.4287C854.068 22.5175 854.273 24.2598 854.319 26.6558L854.512 36.7189C857.519 36.3873 859.775 36.207 861.281 36.178C862.856 36.1478 864.021 36.1939 864.777 36.3164C865.599 36.369 866.529 36.6593 867.567 37.1873C869.364 38.043 870.304 40.6615 870.388 45.0427C870.471 49.3555 869.598 52.0088 867.768 53.0027C866.75 53.5016 865.832 53.8274 865.013 53.9801C864.261 54.063 863.098 54.1196 861.524 54.1499Z" fill="#B61138"/>
<path d="M876.817 73.802C877.427 72.7027 878.415 71.9434 879.782 71.524C881.148 71.0362 883.337 70.7829 886.35 70.7641C889.363 70.7453 891.524 71.4165 892.833 72.7777C894.21 74.0701 894.911 76.6333 894.935 80.4675C894.944 81.9054 894.85 83.2411 894.652 84.4748C894.072 90.2985 892.187 95.377 888.996 99.7106C885.804 104.044 882.052 106.224 877.739 106.251C877.259 106.254 876.812 105.881 876.397 105.13C876.05 104.447 875.873 103.524 875.866 102.36C875.859 101.265 875.99 100.374 876.26 99.6874C876.598 99.0006 877.006 98.553 877.484 98.3446C877.962 98.2046 878.44 97.9278 878.917 97.514C879.462 97.1682 880.176 96.2736 881.057 94.8303C881.938 93.3869 882.441 91.7405 882.566 89.891C880.374 89.6308 878.658 88.9225 877.418 87.7663C876.246 86.5411 875.652 84.5934 875.635 81.9232C875.687 79.184 875.744 77.4377 875.808 76.6841C875.94 75.8616 876.276 74.9009 876.817 73.802Z" fill="#B61138"/>
<path d="M989.531 17.1923C992.839 19.5868 994.471 21.8794 994.427 24.0699C994.401 25.3706 993.578 27.169 991.957 29.465L969.115 62.1887L968.723 81.8012C968.692 83.3757 968.599 84.5723 968.446 85.391C968.362 86.1427 968.037 87.0264 967.468 88.0423C966.9 89.0582 965.962 89.7586 964.653 90.1433C963.344 90.5281 961.594 90.6986 959.404 90.6548C957.213 90.611 955.472 90.3708 954.179 89.9341C952.887 89.4974 951.977 88.7601 951.45 87.7224C950.924 86.6161 950.6 85.6852 950.478 84.9294C950.426 84.1066 950.417 82.8737 950.45 81.2308L950.837 61.8236L929.32 28.2138C927.792 25.8549 927.041 24.0251 927.067 22.7244C927.111 20.5339 928.659 18.4761 931.71 16.551C934.763 14.5575 936.94 13.5738 938.241 13.5997C939.541 13.6257 940.563 13.92 941.305 14.4827C942.454 15.259 943.658 16.6869 944.917 18.7666L960.325 44.55L976.749 19.4024C978.091 17.3747 979.247 16.0624 980.218 15.4654C981.19 14.8 982.292 14.4796 983.524 14.5042C984.825 14.5302 986.827 15.4263 989.531 17.1923Z" fill="#B61138"/>
<path d="M986.94 64.0372C987.312 55.8293 990.491 49.1878 996.478 44.1128C1002.47 39.0377 1009.15 36.6674 1016.54 37.0018C1023.93 37.3362 1030.34 40.2995 1035.77 45.8916C1041.21 51.4153 1043.75 58.2811 1043.37 66.489C1043.12 72.1662 1041.42 77.1611 1038.28 81.474C1035.14 85.7184 1031.4 88.8048 1027.06 90.7332C1022.8 92.5963 1018.41 93.4256 1013.89 93.2213C1009.38 93.0169 1005.05 91.7244 1000.91 89.3436C996.769 86.8945 993.327 83.4488 990.581 79.0065C987.906 74.4989 986.693 69.5091 986.94 64.0372ZM1008.05 72.395C1010.16 74.1357 1012.35 75.0571 1014.61 75.1593C1016.86 75.2614 1019.16 74.5086 1021.49 72.9008C1023.83 71.293 1025.07 68.8133 1025.22 65.4618C1025.38 62.1102 1024.43 59.5657 1022.38 57.8281C1020.34 56.0905 1018.08 55.166 1015.62 55.0545C1013.16 54.9431 1010.83 55.6943 1008.63 57.3083C1006.43 58.9223 1005.26 61.4051 1005.11 64.7567C1004.96 68.0398 1005.94 70.5859 1008.05 72.395Z" fill="#B61138"/>
<path d="M1073.4 95.5696C1066.5 95.0623 1060.96 92.0456 1056.76 86.5195C1052.64 80.93 1050.86 74.3797 1051.41 66.8683L1052.73 48.9436C1052.85 47.3048 1052.97 46.1123 1053.1 45.3662C1053.29 44.6251 1053.66 43.76 1054.22 42.7709C1055.31 40.9975 1058.04 40.2715 1062.41 40.593C1067.19 40.9446 1069.89 42.4479 1070.52 45.103C1070.85 46.2257 1070.93 47.982 1070.75 50.372L1069.43 68.2967C1069.23 71.0964 1069.85 73.3393 1071.31 75.0254C1072.83 76.7165 1074.92 77.6599 1077.59 77.8558C1080.32 78.0567 1082.56 77.398 1084.32 75.8797C1086.15 74.3665 1087.16 72.2783 1087.36 69.6152L1088.69 51.4856C1088.81 49.915 1088.93 48.7567 1089.05 48.0106C1089.25 47.2012 1089.66 46.3045 1090.28 45.3204C1091.3 43.6103 1093.99 42.916 1098.36 43.2374C1102.66 43.5538 1105.22 44.6691 1106.04 46.5831C1106.45 47.6425 1106.65 48.5844 1106.66 49.4089C1106.74 50.17 1106.72 51.3359 1106.61 52.9065L1103.94 89.1657C1103.83 90.6679 1103.68 91.8237 1103.48 92.6331C1103.36 93.3792 1102.99 94.2102 1102.37 95.126C1101.22 96.8261 1098.52 97.5204 1094.29 97.209C1090.12 96.9026 1087.62 95.8948 1086.79 94.1857C1086.19 92.9746 1085.95 91.5497 1086.07 89.9108C1085.76 90.3687 1085.1 91.0064 1084.08 91.8238C1083.05 92.6411 1082.08 93.3245 1081.14 93.8737C1078.71 95.2052 1076.13 95.7705 1073.4 95.5696Z" fill="#B61138"/>
<path d="M1153.68 49.239C1154.94 49.7779 1155.92 50.5994 1156.63 51.7035C1157.42 52.7463 1157.71 54.3577 1157.49 56.5377C1157.27 58.7178 1156.38 61.0371 1154.83 63.4957C1153.27 65.9544 1151.27 67.0604 1148.82 66.8138C1147.59 66.6905 1146.43 66.2982 1145.32 65.6367C1144.29 64.9821 1142.85 64.5624 1141.01 64.3774C1139.17 64.1925 1137.37 64.665 1135.61 65.795C1133.91 66.9319 1132.97 68.42 1132.78 70.2594L1130.62 91.719C1130.47 93.2859 1130.28 94.4713 1130.06 95.2751C1129.92 96.0176 1129.52 96.8724 1128.87 97.8395C1127.67 99.508 1124.93 100.127 1120.64 99.695C1117.37 99.3663 1115.07 98.5509 1113.76 97.2489C1112.77 96.1856 1112.3 94.6592 1112.36 92.6699C1112.43 91.9886 1112.53 91.0008 1112.66 89.7064L1116.27 53.8382C1116.42 52.2713 1116.57 51.1166 1116.72 50.374C1116.94 49.5702 1117.33 48.7154 1117.9 47.8096C1119.04 46.0661 1121.79 45.4135 1126.15 45.8519C1130.24 46.2629 1132.72 47.3032 1133.58 48.9728C1134.22 50.1381 1134.48 51.2999 1134.37 52.458C1134.75 52.0154 1135.29 51.4843 1135.97 50.8647C1136.72 50.2519 1138.21 49.4726 1140.44 48.5268C1142.67 47.581 1144.56 47.1869 1146.13 47.3444C1147.77 47.5088 1149.12 47.748 1150.19 48.0619C1151.26 48.3078 1152.43 48.7001 1153.68 49.239Z" fill="#B61138"/>
<path d="M1232.06 36.1399C1232.75 35.2021 1233.76 34.6232 1235.11 34.4033C1236.46 34.1833 1238.18 34.2256 1240.28 34.5301C1242.45 34.8444 1244.15 35.2982 1245.38 35.8914C1246.6 36.4846 1247.38 37.3238 1247.71 38.4089C1248.1 39.5039 1248.28 40.4629 1248.23 41.2859C1248.25 42.0509 1248.15 43.2126 1247.93 44.7711L1239.13 105.451C1238.91 107.01 1238.67 108.186 1238.41 108.979C1238.24 109.715 1237.81 110.517 1237.13 111.388C1235.85 113.07 1232.84 113.567 1228.09 112.88C1223.42 112.202 1221.05 110.163 1220.99 106.765C1217.67 109.605 1213.47 110.656 1208.39 109.92C1202.29 109.035 1197.12 105.587 1192.87 99.5751C1188.63 93.4951 1187.02 86.9316 1188.04 79.8844C1189.08 72.7695 1192.49 66.8989 1198.28 62.2727C1204.13 57.6563 1210.08 55.7852 1216.11 56.6594C1221.12 57.3862 1224.77 59.645 1227.06 63.4358L1230.16 42.0911C1230.38 40.5326 1230.58 39.3856 1230.76 38.65C1231.01 37.8565 1231.44 37.0198 1232.06 36.1399ZM1207.59 88.9444C1209.09 91.0293 1211.09 92.2535 1213.6 92.617C1216.1 92.9804 1218.3 92.3652 1220.19 90.7714C1222.15 89.1874 1223.29 87.3113 1223.6 85.1429C1223.93 82.9068 1223.41 80.7222 1222.06 78.5892C1220.78 76.4659 1218.78 75.2079 1216.07 74.815C1213.36 74.4221 1211.06 75.0564 1209.15 76.718C1207.26 78.3118 1206.16 80.2267 1205.83 82.4628C1205.51 84.699 1206.09 86.8595 1207.59 88.9444Z" fill="#B61138"/>
<path d="M1290.38 74.6608C1291.48 70.9638 1294.48 69.5665 1299.4 70.4692C1302.03 70.9514 1303.94 71.512 1305.15 72.151C1306.35 72.7899 1307.1 73.6578 1307.38 74.7545C1307.74 75.8636 1307.87 76.8283 1307.79 77.6488C1307.79 78.4143 1307.65 79.5715 1307.36 81.1204L1300.87 116.476C1300.59 118.025 1300.31 119.191 1300.02 119.974C1299.82 120.703 1299.39 121.529 1298.73 122.452C1297.47 124.03 1294.98 124.479 1291.28 123.799C1287.64 123.131 1285.27 122.242 1284.15 121.132C1283.11 119.966 1282.65 118.49 1282.77 116.702C1279.62 119.813 1275.12 120.831 1269.26 119.756C1263.47 118.692 1258.57 115.043 1254.56 108.808C1250.55 102.573 1249.19 95.9536 1250.48 88.9499C1251.78 81.8788 1255.4 76.1743 1261.35 71.8365C1267.38 67.4437 1273.39 65.7975 1279.38 66.8979C1281.67 67.3183 1283.68 68.1057 1285.42 69.26C1287.16 70.4143 1288.33 71.4299 1288.93 72.3067C1289.55 73.1161 1290.03 73.9008 1290.38 74.6608ZM1268.14 92.2965C1267.73 94.5189 1268.24 96.6999 1269.65 98.8397C1271.08 100.912 1273.04 102.177 1275.53 102.635C1278.03 103.092 1280.25 102.56 1282.2 101.038C1284.21 99.5293 1285.42 97.6972 1285.82 95.5422C1286.22 93.3199 1285.79 91.1175 1284.52 88.9351C1283.32 86.7651 1281.37 85.4328 1278.68 84.9383C1276.05 84.4561 1273.72 85.0032 1271.69 86.5797C1269.73 88.1686 1268.55 90.0742 1268.14 92.2965Z" fill="#B61138"/>
<path d="M1316.99 83.2807C1317.32 81.7406 1317.59 80.6095 1317.82 79.8873C1318.12 79.1124 1318.62 78.2729 1319.3 77.3687C1320.61 75.8281 1323.41 75.5157 1327.69 76.4315C1330.91 77.1184 1333.06 78.174 1334.16 79.5985C1335.1 80.7791 1335.39 82.3475 1335.04 84.3036C1334.97 84.9875 1334.79 85.9655 1334.52 87.2377L1327.01 122.39C1326.68 123.93 1326.36 125.088 1326.06 125.863C1325.83 126.585 1325.35 127.391 1324.6 128.281C1323.35 129.836 1320.59 130.155 1316.3 129.239C1312.09 128.338 1309.7 126.883 1309.15 124.875C1308.9 123.77 1308.78 122.836 1308.8 122.07C1308.89 121.32 1309.11 120.141 1309.45 118.534L1316.99 83.2807ZM1337.43 68.2201C1336.76 69.0573 1335.75 69.5408 1334.39 69.6707C1333.03 69.8006 1331.28 69.6366 1329.14 69.1787C1327.06 68.7351 1325.43 68.1765 1324.25 67.5029C1323.06 66.8293 1322.31 65.933 1321.98 64.8142C1321.73 63.7097 1321.62 62.7748 1321.64 62.0097C1321.74 61.1919 1321.96 60.013 1322.29 58.473C1322.62 56.9329 1322.9 55.8018 1323.12 55.0796C1323.43 54.3047 1323.91 53.4987 1324.58 52.6614C1325.91 51.0539 1328.71 50.7081 1333 51.6238C1337.21 52.5253 1339.56 53.973 1340.05 55.9669C1340.37 57.0857 1340.48 58.054 1340.37 58.8718C1340.35 59.637 1340.17 60.7895 1339.84 62.3296C1339.52 63.8696 1339.2 65.027 1338.89 65.8019C1338.67 66.5241 1338.18 67.3302 1337.43 68.2201Z" fill="#B61138"/>
<path d="M1349.31 64.2264C1349.67 62.693 1349.97 61.5674 1350.21 60.8496C1350.53 60.0807 1351.04 59.2508 1351.74 58.3598C1353.09 56.7779 1355.9 56.4856 1360.17 57.4832C1364.24 58.4339 1366.56 59.9263 1367.14 61.9602C1367.44 63.085 1367.53 64.0552 1367.41 64.8708C1367.36 65.702 1367.15 66.8844 1366.79 68.4178L1355.97 114.721C1355.41 117.121 1355.25 118.702 1355.49 119.462C1355.75 120.155 1356.55 120.658 1357.88 120.97C1359.28 121.297 1360.2 121.582 1360.63 121.824C1361.09 122 1361.59 122.399 1362.15 123.022C1363.28 124.2 1363.39 126.723 1362.49 130.59C1361.51 134.79 1360.24 137.201 1358.69 137.823C1356.67 138.618 1352.49 137.852 1346.15 135.524C1341.17 133.657 1338.23 131.178 1337.34 128.086C1336.24 124.382 1336.52 118.964 1338.19 111.83L1349.31 64.2264Z" fill="#B61138"/>
<path d="M1423.47 100.675C1426.91 103.445 1428.3 106.053 1427.64 108.499C1427.32 109.689 1426.75 110.742 1425.94 111.657C1425.12 112.572 1424.71 113.063 1424.69 113.129L1383.05 164.241C1382.18 165.354 1381.46 166.188 1380.89 166.742C1380.38 167.314 1379.65 167.791 1378.69 168.172C1377.74 168.554 1376.67 168.584 1375.48 168.263C1374.29 167.943 1372.67 166.975 1370.62 165.36C1367.18 162.59 1365.79 160.015 1366.43 157.635C1366.86 156.048 1372.07 149.333 1382.07 137.491L1371.28 98.9524C1370.55 96.4144 1370.32 94.6166 1370.61 93.5588C1371.18 91.4432 1373.53 89.8086 1377.67 88.6549C1380.28 87.9384 1382.21 87.7493 1383.46 88.0877C1384.72 88.4262 1385.67 88.9667 1386.33 89.7094C1386.98 90.452 1387.39 91.1654 1387.56 91.8495C1387.81 92.4852 1388.8 96.0493 1390.53 102.542C1392.34 108.986 1394.08 115.021 1395.75 120.649C1396.37 119.68 1399.25 116.096 1404.39 109.894C1409.56 103.627 1412.3 100.289 1412.62 99.8797C1413.01 99.4881 1413.56 99.0331 1414.27 98.5145C1415.43 97.6221 1416.77 97.3808 1418.29 97.7905C1419.88 98.218 1421.6 99.1796 1423.47 100.675Z" fill="#B61138"/>
<path d="M1507.62 103.826C1508.48 103.04 1509.59 102.669 1510.95 102.714C1512.32 102.758 1514 103.134 1516 103.839C1518.07 104.567 1519.65 105.341 1520.74 106.161C1521.83 106.981 1522.43 107.955 1522.54 109.083C1522.71 110.233 1522.7 111.207 1522.49 112.005C1522.37 112.761 1522.04 113.882 1521.52 115.367L1501.14 173.196C1500.62 174.681 1500.16 175.789 1499.76 176.518C1499.44 177.206 1498.87 177.911 1498.03 178.633C1496.45 180.035 1493.4 179.94 1488.88 178.347C1484.42 176.777 1482.49 174.319 1483.09 170.972C1479.29 173.116 1474.96 173.335 1470.12 171.628C1464.31 169.581 1459.9 165.196 1456.89 158.475C1453.91 151.69 1453.61 144.939 1455.97 138.223C1458.36 131.442 1462.84 126.343 1469.42 122.925C1476.06 119.53 1482.26 118.845 1488 120.87C1492.78 122.554 1495.93 125.477 1497.44 129.639L1504.6 109.297C1505.13 107.812 1505.55 106.725 1505.86 106.038C1506.26 105.308 1506.85 104.571 1507.62 103.826ZM1473.39 150.895C1474.46 153.231 1476.19 154.819 1478.58 155.661C1480.96 156.503 1483.24 156.325 1485.41 155.128C1487.63 153.953 1489.11 152.332 1489.84 150.266C1490.59 148.135 1490.51 145.892 1489.6 143.538C1488.75 141.206 1487.03 139.586 1484.45 138.675C1481.87 137.765 1479.48 137.941 1477.3 139.203C1475.13 140.401 1473.67 142.065 1472.92 144.196C1472.17 146.327 1472.33 148.56 1473.39 150.895Z" fill="#B61138"/>
<path d="M1515.38 159.347C1518.56 151.774 1523.84 146.642 1531.22 143.95C1538.59 141.259 1545.68 141.347 1552.5 144.216C1559.31 147.084 1564.31 152.082 1567.47 159.208C1570.66 166.272 1570.67 173.591 1567.48 181.164C1565.28 186.401 1561.95 190.5 1557.51 193.46C1553.1 196.357 1548.53 197.961 1543.79 198.27C1539.14 198.543 1534.74 197.804 1530.57 196.051C1526.41 194.298 1522.79 191.588 1519.73 187.922C1516.69 184.193 1514.66 179.769 1513.62 174.651C1512.66 169.497 1513.25 164.395 1515.38 159.347ZM1532.29 174.489C1533.67 176.853 1535.41 178.474 1537.49 179.35C1539.57 180.227 1541.99 180.314 1544.73 179.613C1547.48 178.912 1549.5 177.015 1550.81 173.923C1552.11 170.83 1552.1 168.115 1550.78 165.777C1549.46 163.439 1547.66 161.792 1545.39 160.836C1543.12 159.88 1540.67 159.779 1538.05 160.534C1535.43 161.288 1533.47 163.211 1532.17 166.304C1530.9 169.333 1530.94 172.061 1532.29 174.489Z" fill="#B61138"/>
<path d="M1564.75 205.071C1563.91 203.783 1563.86 202.33 1564.6 200.711C1565.34 199.091 1567.64 197.172 1571.52 194.952C1572.69 194.206 1574.02 194.175 1575.51 194.858C1577.07 195.569 1578.8 197.3 1580.71 200.052C1582.64 202.742 1584.66 204.57 1586.78 205.537C1590.58 207.273 1592.82 207.393 1593.5 205.898C1594.04 204.715 1592.36 202.89 1588.44 200.424C1584.77 198.071 1581.55 194.829 1578.77 190.699C1577.47 188.753 1576.78 186.326 1576.67 183.419C1576.6 180.45 1577.32 177.314 1578.82 174.014C1583.32 164.174 1592.32 162.34 1605.84 168.514C1610.26 170.534 1614.32 173.669 1618.03 177.92C1619.75 179.912 1620.27 181.656 1619.59 183.151C1618.91 184.645 1617.38 186.17 1615.02 187.723C1612.65 189.277 1610.75 189.727 1609.32 189.073C1608.57 188.731 1607.38 187.624 1605.76 185.751C1604.19 183.907 1602.22 182.444 1599.86 181.363C1596.18 179.684 1594.03 179.53 1593.41 180.9C1592.55 182.769 1594.12 184.95 1598.09 187.445C1602.01 189.759 1605.45 192.763 1608.43 196.458C1609.84 198.154 1610.64 200.363 1610.82 203.083C1611.1 205.77 1610.5 208.732 1609.02 211.971C1607.54 215.209 1605.65 217.696 1603.36 219.432C1601.15 221.133 1598.7 222.047 1596.01 222.172C1591.14 222.282 1585.68 220.957 1579.64 218.197C1573.66 215.466 1568.7 211.091 1564.75 205.071Z" fill="#B61138"/>
<path d="M1668.11 217.25C1666.61 221.148 1664.5 223.673 1661.78 224.827C1659.15 225.941 1656.65 226.043 1654.28 225.132L1631.57 216.382C1630.88 218.171 1631.36 220.078 1633 222.104C1634.64 224.131 1636.51 225.55 1638.62 226.362C1642.33 227.79 1645.38 228.527 1647.79 228.572L1648.99 228.595C1650.79 228.483 1652.21 228.624 1653.23 229.018C1655.27 229.805 1656.48 231.92 1656.84 235.361C1657 237.406 1656.85 239.036 1656.38 240.25C1654.19 245.936 1646.29 246.158 1632.69 240.915C1627.96 239.093 1624.05 236.67 1620.96 233.645C1617.96 230.581 1615.95 227.313 1614.94 223.842C1612.91 217.116 1613.12 210.558 1615.58 204.169C1618.69 196.119 1623.75 190.695 1630.77 187.897C1637.88 185.059 1645.33 185.142 1653.13 188.145C1662.01 191.567 1667.32 197.208 1669.06 205.07C1669.95 209.229 1669.63 213.289 1668.11 217.25ZM1646.81 212.239C1649.24 213.174 1650.85 212.62 1651.64 210.575C1652.2 209.106 1652.08 207.702 1651.28 206.365C1650.54 205.052 1649.11 203.989 1647 203.177C1644.96 202.389 1642.58 202.464 1639.87 203.401C1637.19 204.275 1635.48 205.67 1634.74 207.587L1646.81 212.239Z" fill="#B61138"/>
<path d="M1691.97 232.025C1694.23 224.127 1698.86 218.405 1705.87 214.857C1712.87 211.309 1719.92 210.555 1727.03 212.594C1734.14 214.633 1739.69 219.003 1743.68 225.703C1747.68 232.338 1748.56 239.604 1746.29 247.502C1744.72 252.965 1741.91 257.429 1737.85 260.895C1733.82 264.296 1729.46 266.431 1724.8 267.3C1720.22 268.123 1715.75 267.912 1711.41 266.665C1707.07 265.419 1703.16 263.158 1699.68 259.881C1696.22 256.539 1693.67 252.389 1692.03 247.431C1690.48 242.425 1690.45 237.29 1691.97 232.025ZM1710.56 245.052C1712.21 247.236 1714.12 248.639 1716.3 249.262C1718.47 249.885 1720.88 249.685 1723.52 248.663C1726.16 247.641 1727.95 245.517 1728.87 242.292C1729.8 239.067 1729.47 236.372 1727.88 234.208C1726.29 232.043 1724.31 230.62 1721.95 229.941C1719.58 229.261 1717.14 229.451 1714.62 230.511C1712.11 231.572 1710.39 233.714 1709.47 236.939C1708.56 240.098 1708.92 242.802 1710.56 245.052Z" fill="#B61138"/>
<path d="M1785.84 228.867C1790.44 229.938 1792.85 231.834 1793.06 234.554C1793.16 235.914 1792.98 237.628 1792.49 239.695C1792.01 241.762 1791.39 243.375 1790.63 244.534C1789.95 245.641 1789.08 246.353 1788.02 246.669C1786.44 247.143 1784.31 247.07 1781.64 246.45L1775.33 244.56L1769.1 271.368C1768.51 273.902 1767.73 275.725 1766.77 276.837C1765.89 277.898 1764.74 278.473 1763.31 278.563C1761.95 278.668 1760.24 278.48 1758.17 277.999C1756.1 277.518 1754.48 276.93 1753.31 276.235C1752.21 275.489 1751.51 274.587 1751.19 273.529C1750.89 272.405 1750.77 271.427 1750.82 270.596C1750.94 269.78 1751.18 268.605 1751.54 267.071L1757.71 240.563L1754.1 239.725C1752.4 239.188 1751.26 238.501 1750.68 237.664C1749.71 236.102 1749.64 233.52 1750.48 229.919C1751.75 224.451 1754.36 222.174 1758.29 223.09L1761.59 223.858L1762.83 218.556C1764.02 213.421 1766.93 209.213 1771.56 205.932C1776.21 202.584 1782 201.717 1788.94 203.331C1790.47 203.688 1791.59 204.018 1792.29 204.323C1793.07 204.575 1793.9 205.085 1794.78 205.851C1796.38 207.137 1796.68 209.914 1795.69 214.182C1794.94 217.383 1793.84 219.552 1792.38 220.689C1791.2 221.538 1789.59 221.797 1787.56 221.465C1786.96 221.325 1786.03 221.108 1784.76 220.813C1782.29 220.239 1780.87 220.786 1780.48 222.453L1779.2 227.955L1785.84 228.867Z" fill="#B61138"/>
<path d="M1852.59 241.306C1857.25 242.079 1859.77 243.817 1860.15 246.518C1860.35 247.869 1860.27 249.591 1859.92 251.685C1859.57 253.779 1859.06 255.428 1858.37 256.633C1857.76 257.782 1856.94 258.548 1855.91 258.931C1854.35 259.506 1852.23 259.569 1849.53 259.12L1843.11 257.638L1838.6 284.791C1838.17 287.358 1837.52 289.227 1836.63 290.398C1835.82 291.513 1834.7 292.161 1833.29 292.342C1831.93 292.534 1830.21 292.456 1828.12 292.108C1826.02 291.761 1824.37 291.278 1823.15 290.659C1822.02 289.985 1821.26 289.13 1820.87 288.094C1820.5 286.991 1820.31 286.024 1820.31 285.191C1820.38 284.369 1820.54 283.181 1820.8 281.628L1825.26 254.779L1821.61 254.173C1819.88 253.746 1818.7 253.134 1818.07 252.335C1817 250.838 1816.76 248.266 1817.37 244.619C1818.29 239.08 1820.74 236.642 1824.73 237.304L1828.07 237.859L1828.96 232.489C1829.82 227.288 1832.46 222.902 1836.87 219.331C1841.29 215.693 1847.02 214.457 1854.04 215.624C1855.59 215.881 1856.73 216.14 1857.45 216.398C1858.25 216.6 1859.11 217.056 1860.04 217.764C1861.71 218.945 1862.19 221.697 1861.48 226.02C1860.94 229.262 1859.98 231.497 1858.59 232.725C1857.47 233.648 1855.88 234.01 1853.83 233.808C1853.22 233.707 1852.28 233.55 1851 233.337C1848.5 232.922 1847.11 233.559 1846.83 235.248L1845.9 240.82L1852.59 241.306Z" fill="#B61138"/>
<path d="M1901.1 248.352C1902.34 248.925 1903.3 249.773 1903.98 250.896C1904.74 251.96 1904.98 253.578 1904.71 255.751C1904.43 257.925 1903.48 260.219 1901.86 262.635C1900.24 265.05 1898.2 266.102 1895.76 265.789C1894.54 265.632 1893.38 265.208 1892.3 264.517C1891.28 263.835 1889.86 263.376 1888.02 263.142C1886.19 262.907 1884.37 263.33 1882.58 264.412C1880.85 265.502 1879.87 266.965 1879.64 268.798L1876.9 290.192C1876.7 291.754 1876.48 292.933 1876.24 293.731C1876.07 294.469 1875.65 295.313 1874.98 296.262C1873.74 297.898 1870.97 298.442 1866.7 297.894C1863.44 297.477 1861.17 296.599 1859.89 295.262C1858.92 294.172 1858.5 292.634 1858.62 290.647C1858.7 289.968 1858.83 288.983 1858.99 287.693L1863.57 251.935C1863.77 250.373 1863.95 249.223 1864.12 248.485C1864.36 247.687 1864.77 246.843 1865.37 245.953C1866.56 244.241 1869.32 243.664 1873.67 244.22C1877.75 244.742 1880.19 245.849 1881.01 247.541C1881.62 248.723 1881.85 249.892 1881.7 251.046C1882.1 250.614 1882.65 250.098 1883.35 249.497C1884.11 248.905 1885.62 248.166 1887.88 247.281C1890.13 246.396 1892.04 246.054 1893.6 246.254C1895.23 246.462 1896.58 246.738 1897.64 247.081C1898.71 247.356 1899.86 247.78 1901.1 248.352Z" fill="#B61138"/>
<path d="M1956.01 273.478C1955.65 277.638 1954.32 280.649 1952.03 282.51C1949.81 284.309 1947.44 285.098 1944.91 284.877L1920.67 282.754C1920.5 284.664 1921.48 286.365 1923.62 287.859C1925.76 289.352 1927.95 290.197 1930.2 290.394C1934.16 290.74 1937.3 290.603 1939.62 289.981L1940.78 289.67C1942.48 289.063 1943.88 288.808 1944.97 288.903C1947.16 289.094 1948.9 290.793 1950.2 294C1950.92 295.919 1951.23 297.527 1951.12 298.823C1950.58 304.893 1943.05 307.293 1928.53 306.021C1923.48 305.579 1919.05 304.332 1915.24 302.28C1911.51 300.167 1908.68 297.582 1906.75 294.526C1902.93 288.625 1901.33 282.264 1901.92 275.443C1902.68 266.849 1906.04 260.236 1912.01 255.604C1918.06 250.91 1925.24 248.927 1933.56 249.655C1943.04 250.485 1949.71 254.437 1953.56 261.509C1955.57 265.259 1956.39 269.249 1956.01 273.478ZM1934.17 274.555C1936.76 274.781 1938.15 273.804 1938.34 271.621C1938.48 270.052 1937.98 268.737 1936.83 267.674C1935.76 266.618 1934.09 265.991 1931.84 265.794C1929.66 265.603 1927.4 266.332 1925.05 267.983C1922.71 269.565 1921.45 271.38 1921.28 273.426L1934.17 274.555Z" fill="#B61138"/>
<path d="M1959.95 302.321C1958.69 301.438 1958.1 300.108 1958.19 298.33C1958.27 296.552 1959.7 293.912 1962.47 290.412C1963.28 289.285 1964.51 288.761 1966.15 288.84C1967.86 288.921 1970.11 289.886 1972.9 291.733C1975.69 293.512 1978.25 294.457 1980.58 294.568C1984.75 294.767 1986.87 294.046 1986.95 292.405C1987.01 291.106 1984.77 290.039 1980.22 289.204C1975.94 288.382 1971.74 286.571 1967.62 283.769C1965.7 282.443 1964.15 280.45 1962.97 277.789C1961.8 275.059 1961.3 271.882 1961.48 268.258C1961.99 257.452 1969.67 252.404 1984.51 253.113C1989.37 253.346 1994.31 254.747 1999.32 257.318C2001.67 258.526 2002.8 259.951 2002.72 261.593C2002.64 263.234 2001.79 265.216 2000.17 267.537C1998.55 269.859 1996.96 270.982 1995.38 270.907C1994.56 270.868 1993.05 270.281 1990.84 269.148C1988.7 268.017 1986.33 267.39 1983.73 267.265C1979.7 267.073 1977.64 267.728 1977.57 269.233C1977.47 271.285 1979.74 272.73 1984.36 273.567C1988.85 274.262 1993.16 275.771 1997.3 278.094C1999.24 279.146 2000.8 280.9 2001.99 283.356C2003.24 285.747 2003.79 288.72 2003.62 292.276C2003.45 295.833 2002.62 298.843 2001.13 301.309C1999.71 303.708 1997.78 305.467 1995.32 306.583C1990.84 308.494 1985.29 309.291 1978.65 308.974C1972.09 308.66 1965.85 306.442 1959.95 302.321Z" fill="#B61138"/>
<path d="M2039.55 255.831C2046.4 255.897 2052.06 258.555 2056.53 263.802C2061.06 269.05 2063.29 275.44 2063.22 282.971L2063.04 301.046C2063.03 302.621 2062.95 303.818 2062.8 304.639C2062.73 305.391 2062.41 306.278 2061.85 307.3C2060.95 309.071 2058.3 309.936 2053.92 309.893C2049.74 309.852 2047.15 308.937 2046.14 307.146C2045.6 306.114 2045.27 305.187 2045.14 304.364C2045.08 303.541 2045.06 302.309 2045.07 300.665L2045.25 282.693C2045.28 279.886 2044.51 277.687 2042.95 276.097C2041.39 274.507 2039.38 273.7 2036.92 273.676C2034.52 273.653 2032.39 274.385 2030.53 275.873C2028.66 277.293 2027.59 278.926 2027.29 280.772L2027.1 300.695C2027.08 302.27 2027 303.468 2026.86 304.288C2026.78 305.04 2026.47 305.927 2025.91 306.949C2025 308.72 2022.36 309.585 2017.97 309.542C2013.66 309.5 2011.03 308.55 2010.09 306.692C2009.62 305.66 2009.33 304.767 2009.2 304.013C2009.13 303.259 2009.11 302.06 2009.13 300.417L2009.73 239.003C2009.74 237.429 2009.79 236.265 2009.86 235.513C2010.01 234.692 2010.33 233.805 2010.81 232.851C2011.79 231.012 2014.47 230.114 2018.85 230.157C2023.17 230.199 2025.76 231.148 2026.63 233.006C2027.17 234.038 2027.47 234.965 2027.53 235.788C2027.66 236.542 2027.71 237.707 2027.7 239.281L2027.48 261.978C2030.94 257.835 2034.97 255.786 2039.55 255.831Z" fill="#B61138"/>
<path d="M2099.21 254.905C2106.05 254.703 2111.81 257.171 2116.48 262.307C2121.22 267.374 2123.7 273.671 2123.92 281.2L2124.45 299.268C2124.5 300.842 2124.47 302.041 2124.35 302.867C2124.31 303.622 2124.06 304.485 2123.61 305.457C2122.7 307.333 2120.06 308.336 2115.68 308.465C2110.82 308.608 2107.98 307.425 2107.15 304.914C2106.71 303.763 2106.45 302.024 2106.38 299.697L2105.85 281.629C2105.77 278.823 2104.88 276.657 2103.19 275.131C2101.57 273.604 2099.39 272.88 2096.66 272.961C2093.99 273.039 2091.82 273.925 2090.16 275.618C2088.56 277.309 2087.81 279.489 2087.89 282.158L2088.42 300.329C2088.47 301.903 2088.43 303.103 2088.32 303.928C2088.27 304.683 2087.99 305.547 2087.47 306.522C2086.64 308.396 2084.03 309.397 2079.65 309.526C2075.34 309.653 2072.68 308.807 2071.66 306.987C2071.15 305.975 2070.82 305.094 2070.66 304.345C2070.57 303.526 2070.5 302.329 2070.45 300.755L2069.38 264.414C2069.34 262.908 2069.34 261.778 2069.38 261.023C2069.5 260.198 2069.81 259.298 2070.33 258.324C2071.24 256.584 2073.85 255.651 2078.16 255.524C2082.34 255.401 2084.93 256.113 2085.93 257.659C2086.65 258.802 2087.03 260.195 2087.08 261.837C2087.34 261.35 2087.94 260.648 2088.87 259.73C2089.8 258.812 2090.7 258.066 2091.58 257.492C2093.86 255.85 2096.4 254.987 2099.21 254.905Z" fill="#B61138"/>
<path d="M2182.6 271.077C2182.87 275.245 2182.01 278.422 2180.03 280.61C2178.11 282.725 2175.88 283.865 2173.35 284.03L2149.06 285.613C2149.19 287.526 2150.42 289.058 2152.76 290.21C2155.1 291.361 2157.4 291.863 2159.65 291.716C2163.61 291.458 2166.7 290.845 2168.9 289.878L2170 289.395C2171.59 288.536 2172.93 288.071 2174.02 288C2176.21 287.858 2178.19 289.273 2179.96 292.245C2180.97 294.032 2181.52 295.574 2181.6 296.872C2182 302.953 2174.92 306.468 2160.37 307.416C2155.31 307.746 2150.74 307.186 2146.67 305.736C2142.66 304.214 2139.47 302.089 2137.09 299.362C2132.43 294.108 2129.87 288.065 2129.43 281.232C2128.87 272.624 2131.19 265.577 2136.39 260.092C2141.65 254.534 2148.45 251.483 2156.79 250.94C2166.28 250.321 2173.47 253.214 2178.35 259.621C2180.9 263.022 2182.32 266.841 2182.6 271.077ZM2161.16 275.459C2163.76 275.289 2164.99 274.112 2164.84 271.925C2164.74 270.354 2164.05 269.13 2162.75 268.253C2161.53 267.373 2159.79 267.006 2157.54 267.153C2155.35 267.295 2153.22 268.36 2151.16 270.347C2149.09 272.266 2148.12 274.251 2148.25 276.3L2161.16 275.459Z" fill="#B61138"/>
<path d="M2191.28 299.019C2189.91 298.324 2189.14 297.091 2188.97 295.319C2188.8 293.547 2189.84 290.731 2192.08 286.871C2192.72 285.641 2193.86 284.947 2195.49 284.791C2197.2 284.628 2199.56 285.262 2202.59 286.692C2205.61 288.054 2208.27 288.625 2210.59 288.403C2214.75 288.006 2216.75 286.989 2216.59 285.353C2216.47 284.058 2214.1 283.322 2209.47 283.145C2205.12 282.942 2200.7 281.748 2196.23 279.562C2194.14 278.524 2192.32 276.772 2190.78 274.306C2189.23 271.771 2188.28 268.698 2187.94 265.085C2186.91 254.316 2193.79 248.225 2208.58 246.811C2213.42 246.349 2218.5 247.032 2223.84 248.861C2226.33 249.723 2227.65 250.972 2227.81 252.608C2227.96 254.244 2227.4 256.326 2226.13 258.855C2224.86 261.384 2223.44 262.723 2221.87 262.873C2221.06 262.951 2219.47 262.587 2217.13 261.779C2214.85 260.965 2212.41 260.682 2209.82 260.93C2205.8 261.314 2203.86 262.256 2204.01 263.756C2204.2 265.8 2206.65 266.908 2211.34 267.078C2215.88 267.125 2220.37 268.004 2224.8 269.713C2226.87 270.478 2228.66 271.991 2230.18 274.253C2231.77 276.44 2232.73 279.306 2233.07 282.85C2233.41 286.394 2233.02 289.493 2231.89 292.145C2230.83 294.722 2229.17 296.738 2226.9 298.193C2222.74 300.723 2217.35 302.304 2210.74 302.936C2204.2 303.561 2197.71 302.256 2191.28 299.019Z" fill="#B61138"/>
<path d="M2240.8 294.168C2239.41 293.51 2238.61 292.297 2238.39 290.53C2238.18 288.763 2239.14 285.921 2241.28 282.004C2241.89 280.757 2243.01 280.034 2244.64 279.835C2246.34 279.627 2248.72 280.199 2251.78 281.549C2254.84 282.832 2257.52 283.332 2259.83 283.05C2263.98 282.544 2265.95 281.475 2265.75 279.844C2265.59 278.552 2263.2 277.879 2258.57 277.823C2254.21 277.734 2249.77 276.656 2245.24 274.588C2243.12 273.605 2241.26 271.902 2239.65 269.477C2238.04 266.984 2237.01 263.936 2236.57 260.334C2235.26 249.596 2241.98 243.326 2256.72 241.525C2261.55 240.936 2266.65 241.485 2272.03 243.174C2274.54 243.97 2275.9 245.185 2276.1 246.816C2276.3 248.447 2275.79 250.543 2274.59 253.104C2273.39 255.666 2272 257.042 2270.44 257.233C2269.62 257.332 2268.03 257.009 2265.66 256.264C2263.36 255.51 2260.92 255.291 2258.34 255.606C2254.33 256.096 2252.42 257.088 2252.6 258.583C2252.85 260.622 2255.32 261.665 2260.02 261.713C2264.56 261.641 2269.07 262.401 2273.54 263.993C2275.63 264.704 2277.46 266.17 2279.04 268.391C2280.68 270.536 2281.72 273.375 2282.15 276.909C2282.58 280.444 2282.27 283.551 2281.22 286.232C2280.23 288.836 2278.62 290.895 2276.39 292.409C2272.3 295.047 2266.95 296.769 2260.36 297.574C2253.84 298.37 2247.32 297.235 2240.8 294.168Z" fill="#B61138"/>
<path d="M2308.93 244.579C2308.69 243.023 2308.55 241.867 2308.5 241.112C2308.51 240.279 2308.67 239.319 2308.99 238.231C2309.67 236.325 2312.17 235.038 2316.5 234.37C2319.75 233.868 2322.14 234.088 2323.67 235.03C2324.96 235.8 2325.8 237.16 2326.17 239.112C2326.34 239.779 2326.53 240.755 2326.72 242.04L2332.21 277.566C2332.45 279.122 2332.56 280.317 2332.55 281.15C2332.6 281.905 2332.43 282.831 2332.05 283.93C2331.44 285.825 2328.97 287.107 2324.64 287.775C2320.38 288.433 2317.63 287.922 2316.4 286.241C2315.77 285.299 2315.33 284.467 2315.08 283.743C2314.9 283.009 2314.68 281.83 2314.43 280.206L2308.93 244.579ZM2322.68 223.232C2322.35 224.252 2321.58 225.065 2320.35 225.669C2319.13 226.274 2317.44 226.743 2315.27 227.077C2313.17 227.401 2311.45 227.459 2310.1 227.252C2308.75 227.044 2307.73 226.474 2307.03 225.543C2306.4 224.601 2305.96 223.768 2305.71 223.045C2305.52 222.243 2305.3 221.064 2305.06 219.508C2304.82 217.952 2304.68 216.796 2304.63 216.041C2304.64 215.208 2304.81 214.282 2305.14 213.261C2305.8 211.288 2308.3 209.967 2312.63 209.299C2316.89 208.641 2319.61 209.157 2320.77 210.849C2321.46 211.78 2321.91 212.647 2322.1 213.448C2322.35 214.172 2322.6 215.311 2322.84 216.868C2323.08 218.424 2323.19 219.619 2323.18 220.452C2323.23 221.207 2323.06 222.133 2322.68 223.232Z" fill="#B61138"/>
<path d="M2362.58 226.614C2369.32 225.425 2375.37 227.035 2380.74 231.443C2386.16 235.771 2389.52 241.644 2390.83 249.061L2393.97 266.863C2394.24 268.414 2394.38 269.606 2394.39 270.439C2394.45 271.192 2394.33 272.083 2394.03 273.11C2393.4 275.097 2390.93 276.471 2386.62 277.231C2381.83 278.075 2378.85 277.315 2377.66 274.95C2377.06 273.875 2376.55 272.192 2376.15 269.899L2373.01 252.098C2372.52 249.333 2371.33 247.318 2369.44 246.052C2367.62 244.774 2365.36 244.373 2362.66 244.849C2360.03 245.312 2358.02 246.502 2356.62 248.417C2355.28 250.321 2354.85 252.587 2355.31 255.217L2358.47 273.12C2358.74 274.671 2358.88 275.862 2358.89 276.695C2358.95 277.449 2358.8 278.345 2358.42 279.384C2357.87 281.36 2355.43 282.727 2351.12 283.488C2346.87 284.237 2344.11 283.784 2342.85 282.13C2342.2 281.201 2341.74 280.378 2341.47 279.66C2341.26 278.863 2341.02 277.689 2340.75 276.138L2334.44 240.333C2334.18 238.849 2334.01 237.731 2333.95 236.977C2333.94 236.144 2334.13 235.208 2334.5 234.169C2335.15 232.317 2337.59 231.016 2341.84 230.268C2345.95 229.543 2348.62 229.873 2349.84 231.257C2350.71 232.285 2351.29 233.608 2351.58 235.226C2351.77 234.706 2352.25 233.925 2353.04 232.882C2353.83 231.839 2354.62 230.971 2355.4 230.277C2357.42 228.322 2359.81 227.101 2362.58 226.614Z" fill="#B61138"/>
<path d="M2472.74 225.413C2473.62 229.495 2473.24 232.764 2471.6 235.22C2470.01 237.595 2467.98 239.05 2465.51 239.585L2441.72 244.727C2442.12 246.601 2443.56 247.935 2446.05 248.729C2448.53 249.524 2450.88 249.682 2453.09 249.205C2456.97 248.366 2459.93 247.306 2461.96 246.026L2462.98 245.386C2464.42 244.302 2465.68 243.645 2466.75 243.413C2468.9 242.951 2471.06 244.059 2473.25 246.738C2474.51 248.356 2475.28 249.802 2475.55 251.073C2476.84 257.03 2470.36 261.548 2456.1 264.629C2451.15 265.699 2446.55 265.817 2442.31 264.983C2438.12 264.068 2434.65 262.436 2431.9 260.088C2426.51 255.578 2423.1 249.977 2421.65 243.285C2419.83 234.852 2421.08 227.541 2425.42 221.35C2429.81 215.078 2436.08 211.059 2444.25 209.295C2453.55 207.284 2461.09 209.088 2466.85 214.706C2469.88 217.695 2471.84 221.263 2472.74 225.413ZM2452.19 232.902C2454.73 232.352 2455.77 231.007 2455.31 228.865C2454.98 227.326 2454.11 226.218 2452.7 225.541C2451.36 224.85 2449.58 224.743 2447.38 225.221C2445.23 225.683 2443.29 227.05 2441.54 229.32C2439.77 231.522 2439.11 233.628 2439.54 235.635L2452.19 232.902Z" fill="#B61138"/>
<path d="M2522.88 193.275C2526.84 194.498 2529.1 196.274 2529.66 198.602C2529.99 199.933 2529.77 201.924 2529 204.576L2516.94 245.022C2516.55 246.314 2515.74 247.604 2514.5 248.891C2513.24 250.111 2511.88 250.899 2510.42 251.254C2509.02 251.593 2507.58 251.592 2506.09 251.249C2504.64 250.824 2503.57 250.31 2502.86 249.708L2501.69 248.828L2472.31 218.335C2470.45 216.462 2469.35 214.827 2469.01 213.43C2468.43 211.035 2469.61 208.386 2472.57 205.483C2474.75 203.406 2476.57 202.19 2478.03 201.834C2479.49 201.479 2480.74 201.67 2481.76 202.408C2482.84 203.063 2484.06 204.176 2485.43 205.746L2504.6 227.724L2511.57 199.4C2512 197.958 2512.31 196.93 2512.52 196.317C2512.77 195.622 2513.23 194.911 2513.9 194.185C2514.56 193.392 2515.55 192.834 2516.88 192.511C2518.21 192.188 2520.21 192.443 2522.88 193.275Z" fill="#B61138"/>
<path d="M2585.95 196.383C2587.04 200.415 2586.83 203.699 2585.32 206.236C2583.86 208.69 2581.9 210.248 2579.46 210.91L2555.96 217.27C2556.46 219.121 2557.97 220.379 2560.5 221.044C2563.02 221.709 2565.37 221.747 2567.55 221.156C2571.38 220.119 2574.28 218.908 2576.25 217.524L2577.23 216.833C2578.62 215.676 2579.84 214.955 2580.9 214.669C2583.02 214.096 2585.24 215.091 2587.56 217.653C2588.9 219.205 2589.74 220.609 2590.08 221.865C2591.68 227.747 2585.43 232.593 2571.36 236.404C2566.47 237.729 2561.88 238.083 2557.6 237.469C2553.37 236.77 2549.82 235.32 2546.95 233.116C2541.34 228.89 2537.64 223.473 2535.85 216.864C2533.6 208.536 2534.47 201.17 2538.48 194.764C2542.54 188.274 2548.61 183.937 2556.67 181.754C2565.86 179.267 2573.47 180.681 2579.52 185.994C2582.7 188.823 2584.84 192.286 2585.95 196.383ZM2565.81 204.921C2568.32 204.241 2569.29 202.844 2568.72 200.729C2568.31 199.209 2567.38 198.147 2565.94 197.544C2564.57 196.923 2562.79 196.908 2560.61 197.498C2558.5 198.071 2556.62 199.535 2554.99 201.892C2553.34 204.183 2552.79 206.32 2553.32 208.303L2565.81 204.921Z" fill="#B61138"/>
<path d="M2620.87 165.2C2622.23 165.227 2623.46 165.617 2624.53 166.37C2625.66 167.038 2626.53 168.423 2627.15 170.524C2627.77 172.626 2627.82 175.109 2627.31 177.972C2626.8 180.835 2625.36 182.615 2622.99 183.312C2621.81 183.66 2620.58 183.736 2619.31 183.539C2618.11 183.323 2616.62 183.476 2614.84 183.999C2613.07 184.521 2611.58 185.638 2610.37 187.35C2609.23 189.043 2608.92 190.776 2609.44 192.549L2615.53 213.239C2615.98 214.749 2616.25 215.918 2616.35 216.745C2616.5 217.487 2616.45 218.428 2616.22 219.568C2615.74 221.565 2613.43 223.174 2609.29 224.392C2606.14 225.321 2603.71 225.43 2602 224.719C2600.68 224.109 2599.67 222.871 2598.98 221.005C2598.78 220.349 2598.5 219.396 2598.13 218.148L2587.95 183.568C2587.51 182.057 2587.21 180.931 2587.06 180.189C2586.96 179.362 2587.01 178.421 2587.19 177.366C2587.59 175.322 2589.89 173.681 2594.1 172.443C2598.04 171.283 2600.72 171.312 2602.15 172.533C2603.18 173.371 2603.86 174.348 2604.19 175.465C2604.39 174.908 2604.68 174.215 2605.08 173.384C2605.54 172.534 2606.63 171.25 2608.34 169.534C2610.04 167.818 2611.65 166.738 2613.16 166.293C2614.74 165.828 2616.08 165.54 2617.19 165.428C2618.28 165.249 2619.51 165.174 2620.87 165.2Z" fill="#B61138"/>
<path d="M2675.62 147.944C2680.01 148.413 2682.59 149.855 2683.36 152.268C2683.74 153.443 2683.83 154.635 2683.64 155.845C2683.45 157.055 2683.37 157.693 2683.39 157.758L2676.02 223.271C2675.9 224.677 2675.74 225.769 2675.56 226.546C2675.44 227.302 2675.08 228.099 2674.49 228.935C2673.89 229.772 2673.01 230.377 2671.83 230.751C2670.66 231.126 2668.77 231.187 2666.18 230.936C2661.79 230.467 2659.22 229.058 2658.47 226.709C2657.97 225.144 2658.72 216.676 2660.72 201.307L2630.8 174.731C2628.81 172.994 2627.65 171.604 2627.32 170.56C2626.65 168.473 2627.75 165.824 2630.61 162.613C2632.41 160.602 2633.93 159.399 2635.17 159.004C2636.41 158.609 2637.5 158.547 2638.45 158.82C2639.4 159.092 2640.13 159.47 2640.64 159.953C2641.2 160.35 2643.96 162.812 2648.93 167.338C2653.94 171.779 2658.67 175.912 2663.12 179.739C2663.11 178.591 2663.6 174.018 2664.57 166.019C2665.52 157.955 2666.02 153.663 2666.07 153.144C2666.19 152.604 2666.4 151.925 2666.71 151.106C2667.21 149.727 2668.21 148.798 2669.71 148.32C2671.27 147.821 2673.24 147.695 2675.62 147.944Z" fill="#B61138"/>
<path d="M2736.55 154.911C2737.52 157.616 2739.19 159.417 2741.55 160.313C2743.89 161.145 2746.06 161.202 2748.05 160.482C2750.12 159.74 2751.81 158.475 2753.13 156.689C2754.49 154.816 2755.72 153.682 2756.82 153.287C2758.75 152.591 2761.71 153.451 2765.71 155.867C2767.87 157.202 2769.21 158.61 2769.75 160.091C2770.63 162.539 2769.68 165.464 2766.9 168.866C2764.16 172.766 2760.11 175.678 2754.77 177.604C2748.78 179.762 2742.23 179.681 2735.14 177.361C2731.76 176.251 2728.61 174.29 2725.71 171.48C2722.78 168.604 2720.57 165.105 2719.09 160.983C2717.58 156.796 2717.06 152.726 2717.53 148.773C2717.97 144.755 2719.14 141.24 2721.04 138.227C2724.86 132.05 2729.79 127.87 2735.85 125.689C2738.3 124.807 2740.81 124.303 2743.38 124.176C2745.93 123.985 2747.87 124.014 2749.2 124.264L2751.09 124.673C2752.53 125.029 2753.65 125.316 2754.46 125.535C2756.6 126.22 2757.97 127.4 2758.57 129.075C2759.15 130.685 2759.14 132.764 2758.53 135.313C2757.49 139.691 2755.9 142.263 2753.78 143.029C2752.55 143.47 2750.56 143.388 2747.79 142.783C2746.24 142.106 2744.37 142.161 2742.18 142.95C2740.05 143.716 2738.33 145.208 2737.02 147.427C2735.71 149.646 2735.55 152.141 2736.55 154.911Z" fill="#B61138"/>
<path d="M2792.57 111.078C2791.56 107.356 2793.39 104.588 2798.05 102.775C2800.54 101.807 2802.46 101.278 2803.82 101.189C2805.18 101.1 2806.27 101.447 2807.09 102.23C2807.98 102.989 2808.6 103.738 2808.96 104.479C2809.36 105.131 2809.85 106.191 2810.42 107.659L2823.46 141.157C2824.03 142.624 2824.4 143.766 2824.57 144.581C2824.78 145.308 2824.85 146.237 2824.77 147.368C2824.52 149.374 2822.65 151.061 2819.14 152.427C2815.69 153.768 2813.2 154.259 2811.67 153.902C2810.17 153.456 2809 152.44 2808.17 150.856C2807.12 155.156 2803.82 158.387 2798.27 160.548C2792.79 162.684 2786.7 162.15 2780.02 158.947C2773.33 155.745 2768.7 150.825 2766.12 144.189C2763.51 137.49 2763.6 130.733 2766.38 123.918C2769.2 117.015 2773.46 112.458 2779.13 110.247C2781.3 109.403 2783.43 109.016 2785.52 109.086C2787.6 109.156 2789.13 109.406 2790.1 109.834C2791.06 110.199 2791.88 110.614 2792.57 111.078ZM2782.9 137.766C2783.72 139.871 2785.3 141.463 2787.63 142.54C2789.93 143.553 2792.26 143.6 2794.62 142.681C2796.99 141.762 2798.6 140.143 2799.46 137.825C2800.38 135.481 2800.45 133.288 2799.65 131.246C2798.83 129.141 2797.31 127.493 2795.08 126.302C2792.92 125.087 2790.56 124.976 2788.01 125.969C2785.52 126.938 2783.83 128.626 2782.93 131.033C2782.09 133.416 2782.08 135.66 2782.9 137.766Z" fill="#B61138"/>
<path d="M2843.09 84.0379C2849.38 81.3415 2855.64 81.5265 2861.87 84.593C2868.14 87.5696 2872.75 92.5194 2875.72 99.4424L2882.84 116.058C2883.46 117.505 2883.87 118.633 2884.07 119.443C2884.3 120.162 2884.38 121.056 2884.32 122.126C2884.17 124.203 2882.08 126.104 2878.05 127.83C2873.58 129.744 2870.5 129.686 2868.81 127.654C2867.98 126.745 2867.1 125.221 2866.18 123.082L2859.06 106.466C2857.96 103.886 2856.34 102.196 2854.21 101.395C2852.14 100.568 2849.85 100.693 2847.33 101.772C2844.88 102.824 2843.19 104.442 2842.26 106.626C2841.4 108.784 2841.49 111.09 2842.54 113.544L2849.7 130.254C2850.32 131.702 2850.73 132.83 2850.93 133.639C2851.16 134.358 2851.22 135.266 2851.09 136.363C2851 138.413 2848.94 140.301 2844.91 142.026C2840.95 143.725 2838.16 143.914 2836.55 142.592C2835.71 141.837 2835.07 141.14 2834.65 140.501C2834.27 139.773 2833.76 138.685 2833.14 137.238L2818.82 103.818C2818.23 102.434 2817.82 101.382 2817.58 100.663C2817.39 99.8535 2817.35 98.9005 2817.48 97.8037C2817.68 95.8528 2819.77 94.028 2823.73 92.3293C2827.57 90.6845 2830.24 90.3971 2831.74 91.4671C2832.83 92.2674 2833.7 93.4228 2834.35 94.9333C2834.41 94.3849 2834.71 93.5128 2835.24 92.3172C2835.77 91.1215 2836.33 90.0966 2836.94 89.2426C2838.46 86.8783 2840.51 85.1434 2843.09 84.0379Z" fill="#B61138"/>
<path d="M2887.1 106.721C2887.15 105.191 2887.69 103.922 2888.74 102.913C2889.84 101.876 2891.73 100.742 2894.41 99.5094C2897.14 98.2485 2899.37 97.9366 2901.1 98.5737C2902.89 99.1821 2904.37 100.761 2905.54 103.311L2906.23 104.803C2906.92 106.295 2907.37 107.443 2907.59 108.247C2907.85 108.96 2907.95 109.928 2907.91 111.152C2907.75 113.414 2905.77 115.419 2901.98 117.167C2898.25 118.886 2895.49 119.442 2893.7 118.833C2891.94 118.134 2890.27 116.043 2888.66 112.561C2887.54 110.136 2887.02 108.189 2887.1 106.721ZM2894.57 90.0481C2893.53 90.9034 2892.02 91.7896 2890.03 92.7066C2888.04 93.6236 2886.38 94.1988 2885.06 94.4324C2883.73 94.6659 2882.63 94.4931 2881.76 93.9139C2880.96 93.3061 2880.35 92.72 2879.94 92.1554C2879.59 91.5622 2879.11 90.6127 2878.51 89.3068L2864.88 59.7382C2864.28 58.4323 2863.87 57.4541 2863.64 56.8036C2863.45 56.0623 2863.42 55.1728 2863.55 54.1351C2863.67 53.0975 2864.25 52.151 2865.29 51.2956C2866.3 50.378 2867.8 49.4608 2869.79 48.5438C2871.78 47.6268 2873.45 47.0827 2874.81 46.9113C2876.13 46.6778 2877.21 46.896 2878.05 47.566C2878.92 48.1452 2879.54 48.7624 2879.92 49.4178C2880.33 49.9823 2880.84 50.9175 2881.44 52.2234L2895.06 81.7921C2895.66 83.0979 2896.05 84.0905 2896.21 84.7696C2896.43 85.4201 2896.48 86.2642 2896.36 87.3018C2896.2 88.2773 2895.61 89.1927 2894.57 90.0481Z" fill="#B61138"/>
</svg>
