<svg width="71" height="70" viewBox="0 0 71 70" fill="none" xmlns="http://www.w3.org/2000/svg">
<g clip-path="url(#clip0_612_629)">
<path d="M35.2163 70C54.5463 70 70.2163 54.33 70.2163 35C70.2163 15.67 54.5463 0 35.2163 0C15.8863 0 0.216309 15.67 0.216309 35C0.216309 54.33 15.8863 70 35.2163 70Z" fill="#7584F2"/>
<path d="M70.0399 38.5309L50.4893 18.9805L45.2974 22.4234L34.2067 11.3328L33.5815 12.5865L34.0728 37.8629L29.5391 40.1853L24.6392 35.2855L22.2934 36.9384L23.732 38.3768L20.4042 50.9444L16.6074 54.291L19.1527 56.8363L18.8013 57.2379L31.3498 69.7863C32.6196 69.9259 33.9093 69.9999 35.2163 69.9999C53.3546 70 68.2695 56.2026 70.0399 38.5309Z" fill="#606AEA"/>
<path d="M32.3241 38.5142C29.5452 36.7648 26.3527 38.497 26.3223 38.5135L26.3209 38.509C26.3209 38.509 23.11 36.7512 20.3178 38.509C16.815 40.714 17.079 52.6312 24.3365 52.7852C24.9477 52.7982 26.3211 52.1354 26.3211 52.1354V52.1406C26.3211 52.1406 27.6944 52.8032 28.3057 52.7904C35.563 52.6364 35.8269 40.7192 32.3241 38.5142Z" fill="#FF193D"/>
<path d="M24.0718 34.8049C25.8635 36.0648 26.3209 38.5012 26.3209 38.5012C26.3209 38.5012 23.8734 38.895 22.0817 37.6351C20.29 36.3752 19.8325 33.9388 19.8325 33.9388C19.8325 33.9388 22.2801 33.545 24.0718 34.8049Z" fill="#06B26B"/>
<path d="M40.6356 31.5246L30.7817 27.4232V18.9805H40.6356L45.6678 22.7854L40.6356 31.5246Z" fill="white"/>
<path d="M50.4896 27.423L40.6357 31.5246V18.9805H50.4896V27.423Z" fill="#EEEEF0"/>
<path d="M40.6357 53.8917L30.7819 53.8918L30.7817 27.4232H40.6356L45.6678 39.3519L40.6357 53.8917Z" fill="#FFCE00"/>
<path d="M40.6357 27.423H50.4896V53.8915H40.6357V27.423Z" fill="#FDBA12"/>
<path d="M35.069 18.9805L34.2067 11.3326L32.1689 11.5622L33.0053 18.9805L33.9571 20.2932L35.069 18.9805Z" fill="#ADCFFF"/>
<path d="M33.9572 27.4232L35.0691 28.4897L36.021 27.4232L35.0691 18.9805H33.0054L33.9572 27.4232Z" fill="#8BBBFF"/>
<path d="M36.6557 51.3595L38.6937 51.1298L36.0208 27.4232H33.957L36.6557 51.3595Z" fill="#FDBA12"/>
<path d="M22.0894 48.7296L21.7031 48.3431C20.9018 47.5418 19.6025 47.5418 18.8012 48.3431C18.1528 48.9915 18.0296 49.9656 18.4304 50.7385H18.0066C16.8733 50.7385 15.9546 51.6573 15.9546 52.7905C15.9546 53.9238 16.8733 54.8425 18.0066 54.8425H18.4304C18.0296 55.6154 18.1529 56.5895 18.8012 57.238C19.6025 58.0393 20.9018 58.0393 21.7031 57.238L22.0894 56.8515C22.173 56.9887 22.2718 57.1193 22.3905 57.238C23.1918 58.0393 24.491 58.0393 25.2923 57.238L27.7823 54.7481L29.0707 52.7905L27.7823 50.833L25.2923 48.3431C24.491 47.5418 23.1918 47.5418 22.3904 48.3431C22.2718 48.4619 22.173 48.5923 22.0894 48.7296Z" fill="#06B26B"/>
<path d="M40.6358 49.9279L27.7827 50.833L27.7829 54.7481L40.6358 55.6531L43.0632 52.7905L40.6358 49.9279Z" fill="#1DD882"/>
<path d="M43.8806 49.6993L40.6357 49.9278V55.653L43.8806 55.8815C45.6733 56.0076 47.1971 54.5874 47.197 52.7904C47.197 50.9933 45.6733 49.5731 43.8806 49.6993Z" fill="#06B26B"/>
</g>
<defs>
<clipPath id="clip0_612_629">
<rect width="70" height="70" fill="white" transform="translate(0.216309)"/>
</clipPath>
</defs>
</svg>
